<svg xmlns="http://www.w3.org/2000/svg" width="32" height="33" fill="none"><g fill="#000" clip-path="url(#a)"><path d="M20.515.122c-.247.094-.294.115-.33.15l-.042.04-.296.062c-.31.066-.469.09-.706.1L19 .483 18.716.36a5.058 5.058 0 0 1-.341-.158c-.055-.032-.067-.035-.143-.035-.1 0-.233.04-.402.124a.716.716 0 0 0-.237.18l-.127.125-.484-.012-.485-.011L16.375.5a1.799 1.799 0 0 0-.83-.25 1.181 1.181 0 0 1-.214-.028.417.417 0 0 0-.112-.017.233.233 0 0 0-.137.03c-.11.054-.163.114-.25.285-.06.116-.08.147-.094.143a1.407 1.407 0 0 0-.605-.017c-.08.023-.087.027-.178.116l-.096.093-.465-.041a4.694 4.694 0 0 1-.546-.065.83.83 0 0 0-.33-.01 4.76 4.76 0 0 0-.38.193c0 .001.005.056.014.121l.014.128c0 .003.101.04.224.08l.222.074h.236l.002.247.004.246.118-.153.12-.154-.033-.086a1.04 1.04 0 0 1-.032-.093c0-.004.031-.007.07-.007h.071l.067.186a3.6 3.6 0 0 0 .074.192c.003.004.047-.085.096-.199l.09-.205h.155l.028.113c.016.062.03.114.032.116a.996.996 0 0 0 .05-.13c.024-.075.047-.136.049-.136a5.84 5.84 0 0 1 .662-.068l.316-.015.198.09c.108.05.202.094.208.099.04.031.054.34.021.48l-.017.08-.136.095a2.31 2.31 0 0 1-.141.095c-.003 0-.087-.068-.187-.15-.1-.083-.181-.15-.184-.148 0 .001.036.109.082.24.046.129.084.24.084.243 0 .008-.15.096-.162.096a.235.235 0 0 1-.006-.07v-.07l-.182-.182-.183-.181.078.254c.042.14.078.26.078.265 0 .01-.125.084-.13.077a25.041 25.041 0 0 0-.39-.447c-.003 0-.005.082-.005.182v.183h.168v.183l-.079.039-.082.038c-.002 0-.063-.124-.138-.276a4.688 4.688 0 0 0-.138-.272c-.003 0 .004.15.012.33l.017.326-.028.03c-.016.016-.033.026-.037.023a2.528 2.528 0 0 1-.124-.145l-.116-.14-.03-.133-.03-.134-.007.068a7.51 7.51 0 0 0-.034.478c.003.002.054.018.112.034.06.016.108.032.11.034.003.002-.063.034-.147.073l-.152.068-.061-.064c-.034-.036-.118-.124-.185-.198a2.966 2.966 0 0 0-.128-.133.66.66 0 0 0 .047.086l.132.226.082.14-.022.069a.616.616 0 0 0 .021.435c.03.07.036.078.071.088.03.01.046.009.062 0 .044-.024.054-.07.054-.256v-.172l.092.07c.166.13.36.223.468.22a.582.582 0 0 0 .085-.007c.036-.006.043-.012.057-.047.011-.032.012-.044.002-.063-.023-.042-.11-.097-.19-.121l-.074-.022v-.05c0-.076.066-.159.159-.197.16-.07.402-.064.946.02.255.038.298.048.753.176l.505.14c.014.005-.015-.03-.076-.092l-.1-.1-.234-.032-.233-.032-.311-.2-.31-.2.24-.01c.239-.008.245-.008.482.024.2.028.274.043.439.09.182.054.212.066.356.147a.913.913 0 0 0 .143.074c-.008-.009-.241-.194-.517-.414-.275-.22-.5-.4-.497-.403.002-.002.158.006.348.018l.346.02.073.072c.096.092.196.164.385.276.194.114.3.154.47.182.148.024.273.037.273.03 0-.003-.06-.059-.133-.122a3.314 3.314 0 0 1-.537-.587c-.103-.161-.142-.235-.162-.313l-.016-.059.084.065.595.457.51.39.003.382.002.38.131.13.131.13v.215l-.204.25-.205.248v.31l-.215.124-.215.125v.275l-.225.178-.226.178h-.682v.466l-.075.074-.077.075-.414-.104a13.25 13.25 0 0 0-.416-.1.486.486 0 0 0 .007.065c.019.11.013.2-.021.32-.045.158-.071.21-.154.297a.564.564 0 0 1-.48.177.4.4 0 0 1-.259-.091.412.412 0 0 0-.072-.048c0 .002-.011.062-.026.132a2.25 2.25 0 0 1-.23.677.937.937 0 0 1-.177.22.777.777 0 0 1-.218.175 2.045 2.045 0 0 1-.3.127c-.001 0-.003-.197-.003-.44v-.437l.108.057.107.057.005.091.005.092.119.086.117.087v-.728l-.079-.182-.077-.182-.027-.514a19.738 19.738 0 0 1-.023-.518c.003-.003.02.016.04.04.152.187.325.548.414.864l.048.167.011.035.047-.13c.068-.191.087-.283.087-.442 0-.432-.155-.841-.476-1.26l-.094-.122h-.191l-.456-.454c-.25-.25-.453-.454-.448-.454l.112-.015.105-.016.28.181c.155.1.282.18.284.179a1.321 1.321 0 0 0-.116-.245.948.948 0 0 0-.201-.252 1.32 1.32 0 0 0-.625-.348.68.68 0 0 0-.222-.026h-.129l-.147-.146-.146-.146h.451l-.137-.137a1.631 1.631 0 0 0-.29-.239l-.153-.103-.223.057-.223.059-.281-.067a3.62 3.62 0 0 1-.282-.07c0-.004.12-.077.267-.163.147-.085.265-.157.263-.158a6.289 6.289 0 0 0-.29-.05l-.285-.046-.168.116-.168.116-.082-.041a.428.428 0 0 1-.083-.046c0-.003.034-.039.075-.078.255-.25.655-.726.792-.942.083-.131.15-.35.15-.485V.589l-.044.084a2.613 2.613 0 0 1-.413.537c-.212.201-.555.385-1.166.621l-.266.103-.027.053a1.654 1.654 0 0 1-.423.498c-.274.213-.708.458-1.489.839l-.436.215c-.001 0 .012.117.03.257.02.177.027.257.02.26a2.12 2.12 0 0 0-.332.189c-.16.112-.417.328-.572.484l-.12.12h-.384l-.139.12a2.02 2.02 0 0 0-.497.579l-.065.108.042.059.08.112.04.055h.307l.094.128c.105.142.269.308.361.366a.93.93 0 0 0 .216.096c.001-.001-.068-.165-.155-.363a20.055 20.055 0 0 1-.157-.365c0-.003.03-.023.066-.045l.087-.053c.02-.013.025-.01.067.05l.12.17.073.104.024-.072a.61.61 0 0 0-.026-.414l-.028-.05.089-.089a.819.819 0 0 1 .095-.088c.003 0 .013.034.019.075.026.146.143.387.227.467l.049.047-.006-.052c-.004-.03-.016-.16-.028-.292a15.23 15.23 0 0 0-.027-.288l-.005-.048.043-.007c.038-.007.048-.004.09.03.062.047.099.105.135.215.016.048.032.09.036.095a.777.777 0 0 0 .086-.162l.08-.169.037-.003a.172.172 0 0 0 .04-.006 12.736 12.736 0 0 1 .041-.315c0-.002.05-.005.112-.005h.113l.054.054.055.053-.04-.188-.039-.188.137-.063.138-.064h.299l-.123.17a6.98 6.98 0 0 1-.922 1.03c-.075.072-.3.307-.501.523l-.364.394h-.661l-.184-.1-.183-.102-.146-.238-.147-.238-.038-.326a4.911 4.911 0 0 0-.046-.334 2.92 2.92 0 0 0-.101.291l-.096.298.21.319c.114.175.207.32.205.322-.003.002-.14-.01-.307-.027a8.346 8.346 0 0 0-.307-.027 1.62 1.62 0 0 0 .37.498c.072.053.228.11.362.13a1.38 1.38 0 0 0 .728-.113l.127-.053.225-.222c.207-.203.238-.23.379-.32.31-.2.48-.343.579-.485.036-.053.124-.129.474-.416l.481-.393.05-.043-.006.058c-.02.149-.115.392-.233.591-.121.204-.315.492-.332.492l-.263-.015a6.771 6.771 0 0 0-.255-.013 1.49 1.49 0 0 0 .149.095l.153.09-.07.133a7.062 7.062 0 0 1-.077.141 5.51 5.51 0 0 1-.415-.019c-.225-.013-.41-.024-.412-.022a.656.656 0 0 0 .122.177c.029.03.081.066.127.09.114.057.208.073.422.073.138 0 .177.004.173.013l-.05.17a8.513 8.513 0 0 1-.049.169c-.004.01.022.013.112.013h.116l.002-.179.003-.18.126.182c.07.1.13.185.132.19a2.34 2.34 0 0 0 .324-.114 1.344 1.344 0 0 0-.118-.126l-.124-.123.017-.234a8.68 8.68 0 0 1 .019-.235l.799-.37.8-.37a.448.448 0 0 0-.078-.03c-.15-.05-.468-.063-.77-.032a5.673 5.673 0 0 1-.162.014c-.005 0 .103-.044.241-.097.51-.195.873-.367 1.085-.51l.108-.075-.155-.008c-.415-.021-.595-.054-.806-.146l-.083-.037.057-.011a14.453 14.453 0 0 1 1.624-.204c.134-.008.246-.016.248-.02a15.64 15.64 0 0 0-.48-.305c-.371-.233-.477-.303-.463-.309.01-.004.199-.055.418-.112l.415-.111c.014-.003.104.103.346.409l.336.422c.003.006.094.02.203.03.11.012.202.026.206.03a.604.604 0 0 1 .023.088c.036.165.146.329.325.483l.086.073.092.313c.093.31.094.312.075.343-.098.17-.125.243-.133.365l-.002.042-.066-.092a2.331 2.331 0 0 0-.069-.09 5.05 5.05 0 0 0-.286.076c-.002.002.091.076.21.165l.213.16.032.094c.047.143.059.24.051.464l-.005.195-.101.237c-.107.251-.133.343-.147.521l-.008.094-.165.282c-.21.359-.22.38-.22.438 0 .063.032.142.088.214.024.032.074.105.11.162.036.058.069.107.071.109.002.003.03-.02.062-.052.038-.037.057-.05.053-.036a2.335 2.335 0 0 0-.023.115 4.357 4.357 0 0 1-.027.148l-.01.054-.18-.147-.18-.147.007.046c.02.143.03.376.025.549-.006.22-.019.288-.09.474l-.042.109.026.107.025.112c0 .02-.248-.063-.392-.132-.248-.119-.232-.105-.373-.323a4.024 4.024 0 0 1-.123-.194c.001-.001.163.028.359.065.195.036.357.064.358.062a6.551 6.551 0 0 0-.132-.468 16.528 16.528 0 0 0-.598-.112c-.325-.056-.591-.104-.593-.106-.007-.01-.215-.414-.215-.42 0-.002.166-.005.367-.005.202 0 .367-.003.367-.006 0-.005-.27-.474-.277-.482 0-.002-.246.023-.544.056l-.541.057-.226-.153a3.997 3.997 0 0 1-.223-.158c.002-.002.18-.022.396-.045.216-.023.413-.043.439-.048l.046-.006-.13-.13-.13-.128h-.661l-.22.104-.222.105-.345-.124-.345-.125.293-.094.579-.186c.157-.05.284-.092.282-.095a26.09 26.09 0 0 0-.598-.04l-.595-.036-.271.225-.272.224-.433.035c-.238.02-.433.036-.435.035-.001-.001.224-.104.501-.227.276-.123.502-.226.502-.23a1.63 1.63 0 0 0-.107-.11l-.108-.107-.37.057-.37.058-.097.074c-.226.174-.354.33-.442.536l-.048.113-.223.086-.24.093c-.018.006-.019-.009-.019-.21V7.89l.4-.235.398-.234-.314-.003-.316-.002-.682.615-.682.615H3.03l-.064.1a.604.604 0 0 1-.067.095 3.413 3.413 0 0 1-.02-.227l-.016-.223.236-.235c.13-.13.236-.24.236-.245a1.986 1.986 0 0 0-.083-.155l-.081-.145.176-.212.177-.212.026-.307.028-.31-.192-.316a8.211 8.211 0 0 0-.194-.315c-.002 0-.015.186-.03.41l-.027.41-.117.246-.118.245-.068.048a1.412 1.412 0 0 0-.4.462c-.16.271-.218.42-.371.947l-.08.274-.13.167c-.227.288-.391.517-.507.707-.118.192-.383.674-.414.749a1.136 1.136 0 0 0-.033.321c.012.096.057.25.1.34l.043.091-.075.139c-.132.242-.24.604-.283.961l-.021.178c0 .002-.052.038-.115.081l-.114.077-.007.139c-.017.306.02.572.105.77.026.062.049.114.051.115.002.002.083-.008.18-.023l.178-.025.137.136.136.136.16-.044c.088-.025.16-.047.16-.051 0-.005-.129-.097-.284-.209a3.763 3.763 0 0 1-.278-.206.855.855 0 0 1 .097-.045l.09-.038.122.057.121.056-.175-.175-.174-.176.023-.06a.481.481 0 0 1 .028-.064c.003-.003.09.01.193.03.103.02.19.035.19.034a3.177 3.177 0 0 0-.173-.178l-.177-.177.048-.079c.026-.044.053-.085.059-.092.008-.008.04.01.127.07.064.045.116.08.118.078a1.313 1.313 0 0 0-.094-.142 1.47 1.47 0 0 1-.096-.143 1.97 1.97 0 0 1 .05-.093l.05-.087.033.021c.156.094.243.145.246.143a4.442 4.442 0 0 0-.097-.21 2.573 2.573 0 0 1-.097-.21.681.681 0 0 1 .102.012l.108.016a.337.337 0 0 0 .007-.1v-.098h.042c.023 0 .042 0 .042.002l-.052.806-.053.805c0 .002.047.003.104.003h.104l.006-.112c.004-.062.017-.323.028-.58l.021-.468.043-.063a.404.404 0 0 1 .16-.152l.043-.02.06.048.063.047-.119.117-.12.12h.32v.093c0 .089 0 .094-.023.1a5.934 5.934 0 0 1-.143.025 1.354 1.354 0 0 0-.123.024 1.78 1.78 0 0 0 .17.082c.095.041.175.079.177.082.002.003-.093.054-.21.115-.118.06-.215.112-.215.116 0 .003.06.023.135.044l.235.07.102.032v.203l-.138.045a1.756 1.756 0 0 0-.148.052c-.004.004.08.032.189.063.109.03.203.059.212.063.009.005-.003.014-.037.027a.895.895 0 0 0-.31.235c-.02.03-.02.03-.121.03l-.103.001.047.042c.057.05.14.095.225.119.068.02.122.017.266-.017a.528.528 0 0 1 .429.06c.052.033.059.035.155.035.19 0 .36-.069.58-.232l.1-.075-.312-.004-.311-.002.111-.161c.062-.09.11-.162.107-.162a2.36 2.36 0 0 1-.324-.076c-.004-.006-.051-.084-.106-.17l-.099-.156.034-.078c.019-.043.059-.12.09-.172.205-.346.402-.598.753-.964.107-.111.188-.2.18-.197-.009.002-.152.051-.318.108l-.303.102-.168.207a5.81 5.81 0 0 1-.172.207c-.003 0 .112-.175.565-.857l.227-.343-.07-.04-.07-.042-.34.336-.337.336v-.449l.758-.44.757-.442.076-.122c.042-.067.074-.122.072-.124-.002-.002-.209.066-.46.152l-.457.156-.422.017c-.232.008-.424.015-.426.013a1.949 1.949 0 0 1 .166-.106l.169-.1h.565l.338-.285.338-.285.23.107.23.107.004-.076.003-.075.27-.12.272-.123.286-.031.284-.032.274.252.273.253.223-.112.223-.11.106.145.106.145v.162c0 .159 0 .162.024.167l.228.052c.112.025.266.066.34.089.162.05.377.16.477.242a.274.274 0 0 1 .103.136c.055.13.047.187-.05.35a.96.96 0 0 1-.146.181l-.09.092h.59l.117.185.119.184-.028.157-.033.185c-.006.03-.005.03.047.03h.054v.137l-.002.139-.05.083-.052.084.098.003.099.003.226.244.226.244v.388l-.119.143c-.065.078-.168.21-.23.291l-.114.15h.391l.274.236.276.238.039.104c.07.186.105.454.082.63a.761.761 0 0 1-.015.09.673.673 0 0 1-.096-.01.992.992 0 0 0-.097-.012c-.002 0 .032.049.073.106.1.138.17.25.211.342.101.22.199.611.211.85l.008.127.046.027c.148.086.226.306.277.783l.022.206.04.042c.082.087.141.21.19.395l.025.104.056.018c.105.036.235.146.338.286.04.057.096.114.17.174.143.12.205.187.25.275.033.066.036.079.036.167-.001.136 0 .136-.12.09a3.947 3.947 0 0 1-.517-.274 6.043 6.043 0 0 1-.635-.495 13.45 13.45 0 0 1-.81-.88c-.3-.364-.725-.966-1.033-1.47l-.11-.18-.068-.987c-.038-.544-.072-1.007-.075-1.03-.012-.082-.069-.135-.176-.166l-.06-.017.007-.096c.014-.193-.052-.466-.14-.578a.805.805 0 0 0-.22-.159c-.11-.055-.178-.063-.506-.063h-.291l-.037.11-.038.109h.3l.043.05a.574.574 0 0 1 .144.42l-.007.08-.061.06-.061.06-.023-.072c-.05-.152-.125-.256-.207-.292-.065-.028-.16-.013-.237.035-.046.029-.039.033-.093-.059a.809.809 0 0 0-.294-.26c-.123-.053-.32-.059-.541-.016a.747.747 0 0 0-.254.082c-.17.085-.259.191-.293.349a.25.25 0 0 0-.008.06c.003.002.1-.008.218-.022l.214-.027.15.15c.082.08.15.15.15.154 0 .003-.047.01-.104.012-.195.012-.334.085-.4.21a.797.797 0 0 0-.042.125 1.406 1.406 0 0 1-.024.087.582.582 0 0 1-.082-.024.53.53 0 0 0-.22-.029h-.141l-.073.037c-.15.075-.219.143-.35.338a1.264 1.264 0 0 0-.089.177 3.055 3.055 0 0 1-.15.296c-.059.1-.105.184-.104.186a.999.999 0 0 0 .506-.245l.064-.055h.355l.125.158c.172.218.303.334.57.503.144.09.271.16.429.235l.223.105.135.124c.212.193.373.398.451.576.105.233.153.388.185.594.014.088.015.153.01.338l-.008.23-.051.084a1.032 1.032 0 0 0-.162.5c-.016.198.083.416.276.613l.07.07-.02.035c-.027.05-.063.082-.147.13-.098.054-.27.11-.46.148a1.976 1.976 0 0 0-.161.035.808.808 0 0 0 .1.077c.191.137.426.221.612.221a.558.558 0 0 0 .351-.112c.107-.072.152-.123.256-.294l.065-.108.056.058.055.057.03-.032a.633.633 0 0 0 .132-.252c.06-.185.077-.37.06-.682a2.629 2.629 0 0 1-.008-.216c.009-.008.245-.054.25-.048l.236.331c.32.453.54.723.925 1.135a6.672 6.672 0 0 0 1.607 1.276c.577.319.838.43 1.363.578l.329.094.07.021-.001.252c0 .168-.005.264-.014.287a.54.54 0 0 1-.07.108c-.076.098-.222.186-.399.244l-.121.04.019.084c.01.047.02.088.02.094a1.322 1.322 0 0 0 .821-.238c.133-.104.217-.201.334-.39a.775.775 0 0 1 .146-.162c.174-.154.356-.356.449-.497.13-.198.226-.412.265-.594l.022-.098.414-.453.412-.451h.217l.006.409c.01.712.086 1.215.261 1.738.132.398.427.918.645 1.14.062.062.07.075.083.135a.672.672 0 0 1-.04.407l-.03.078-.128.069a4.03 4.03 0 0 1-.643.269c-.44.154-.679.206-1.263.277a9.62 9.62 0 0 1-1.237.001 8.55 8.55 0 0 1-1.131-.189l-.338-.079-.129-.085c-.394-.263-.539-.387-.884-.765-.125-.137-.333-.456-.481-.737l-.052-.1-.1-.06a1.474 1.474 0 0 1-.17-.125 2.434 2.434 0 0 1-.356-.407l-.064-.099H9.01l-.182.242c-.1.134-.18.244-.18.245.002.002.562.035.592.035.01 0 .211.244.211.255a.288.288 0 0 1-.079.005c-.076 0-.081-.002-.135-.04a.257.257 0 0 0-.117-.052c-.09-.017-.137-.001-.23.077l-.053.044-.115.006a1.266 1.266 0 0 0-.413.095.67.67 0 0 0-.302.264.64.64 0 0 0-.11.29 1.81 1.81 0 0 0-.005.357c.003.002.105-.062.228-.142l.224-.145.117.114.117.115.056-.018c.031-.01.064-.02.072-.024a1.885 1.885 0 0 1-.178.191c-.192.194-.195.196-.301.245-.122.057-.29.18-.363.262a.763.763 0 0 0-.113.7c.038.144.058.198.137.378l.023.053.05-.136c.08-.216.174-.35.282-.406a.201.201 0 0 1 .104-.014l.07.003.014.055a.368.368 0 0 0 .11.181c.03.021.047.024.134.024.085 0 .11-.005.168-.03.095-.04.2-.103.295-.175l.081-.06h.778l.438.306c.33.232.45.323.49.368.145.165.178.283.187.682.01.404.049.586.163.755l.053.078v.106c0 .103 0 .11-.043.195a.981.981 0 0 1-.355.374.594.594 0 0 0-.119.087c.015.013.234.051.36.063a.79.79 0 0 0 .232-.005c.304-.045.437-.142.57-.418a1.42 1.42 0 0 0 .1-.26c.027-.101.04-.133.067-.162a.729.729 0 0 0 .17-.282c.027-.078.027-.423.001-.54l-.018-.076.058-.186c.06-.196.083-.313.094-.489.006-.076.012-.106.02-.103l.36.116c.294.093.4.122.707.187.67.145 1.168.193 1.871.18.663-.01 1.144-.074 1.872-.246a6.79 6.79 0 0 0 .755-.214l.363-.12c.006 0 .101.16.13.216a.681.681 0 0 1-.007.587 1.275 1.275 0 0 1-.196.27c-.06.063-.063.066-.032.06l.145-.023c.242-.036.424-.123.564-.271a.73.73 0 0 0 .193-.38c.027-.115.028-.128.023-.334a3.51 3.51 0 0 0-.017-.278l-.012-.065.062-.154c.099-.247.118-.382.091-.65a1.425 1.425 0 0 0-.09-.41c-.03-.08-.031-.089-.031-.27 0-.346.062-.722.155-.937.083-.192.117-.24.255-.357.18-.15.254-.184.521-.231l.034-.006v.271h.185l.054.08c.123.192.163.295.175.457.004.051-.001.417-.01.813-.009.395-.015.72-.013.721.002.002.035-.165.075-.371.04-.207.075-.373.077-.37.002.002.016.252.03.555l.026.553-.074.192c-.14.37-.23.726-.253 1.009l-.011.14-.227.438-.225.438-.595.643-.594.643-.702.355-.703.355-1.201.398-1.2.398-.473.031c-.487.032-1.08.082-1.3.11-.17.021-.428.082-.467.11l-.03.021-.757-.027-.756-.026-.986-.37-.986-.372-.891-.471-.892-.472-.08-.146a7.4 7.4 0 0 0-.08-.148 1.317 1.317 0 0 1-.269.031.815.815 0 0 1-.685-.324c-.051-.062-.066-.073-.12-.09a.812.812 0 0 1-.392-.258 2.426 2.426 0 0 1-.314-.425l-.099-.16-.005.108-.005.108-.112-.146a3.03 3.03 0 0 1-.11-.147c.002-.002.068.004.148.012.08.01.147.014.15.01.009-.008-.095-.124-.197-.22a3.383 3.383 0 0 0-.412-.327l-.114-.078.1-.003a.427.427 0 0 0 .101-.009c0-.016-.2-.26-.264-.323a2.57 2.57 0 0 0-.453-.34 2.935 2.935 0 0 1-.133-.076c0-.002.073.025.16.06.297.115.339.13.343.126a1.415 1.415 0 0 0-.14-.24 2.87 2.87 0 0 0-.704-.647l-.155-.102.104-.006.104-.005-.428-.369c-.235-.203-.426-.37-.424-.372.001-.003.121.044.265.104.144.06.263.107.265.105a.516.516 0 0 0-.079-.155c-.19-.262-.286-.366-.583-.634a6.657 6.657 0 0 1-.196-.182c0-.004.071.028.32.145.115.054.21.098.213.096a1.517 1.517 0 0 0-.056-.124c-.107-.227-.282-.443-.58-.715a1.815 1.815 0 0 1-.135-.132 2 2 0 0 1 .173.052c.093.032.17.055.17.052 0-.012-.092-.162-.156-.254a1.907 1.907 0 0 0-.224-.25 3.142 3.142 0 0 1-.152-.154c.002 0 .098.037.213.085.114.049.21.086.212.084a2.782 2.782 0 0 0-.144-.185l-.148-.182-.165-.044-.366-.098a1.982 1.982 0 0 1-.203-.06c0-.002.058-.039.128-.08l.13-.075.146.145.147.145.079.017c.043.008.114.027.157.042.043.013.166.049.273.078.448.124.632.138.927.069l.104-.025-.262.26a3.725 3.725 0 0 0-.245.257c.008-.003.297-.08.64-.17.343-.09.628-.168.632-.172.004-.003.024-.09.044-.193.02-.102.038-.187.04-.188.008-.008.577-.287.58-.284 0 .002-.052.2-.117.44-.065.242-.117.44-.115.442.002.002.07-.042.15-.098.381-.27.623-.552.777-.905.105-.24.159-.555.139-.808a1.494 1.494 0 0 1-.008-.144.9.9 0 0 1 .098.093l.096.096.122.423c.068.232.126.427.13.435.003.006.06-.09.124-.215l.118-.227.016-.98.017-.982-.027-.15c-.064-.353-.232-.74-.417-.952a2.314 2.314 0 0 0-.603-.491 1.146 1.146 0 0 1-.108-.063c0-.003.144.045.32.105.176.059.32.107.32.105l-.048-.116c-.113-.264-.326-.509-.646-.744l-.103-.075-.652-.002-.654-.003.063-.037c.139-.085.343-.123.707-.134l.204-.006-.138-.09-.137-.092-.14-.017a3.364 3.364 0 0 0-.71 0 2.341 2.341 0 0 0-.847.276c-.053.03-.098.053-.102.053-.003 0 .11-.139.25-.307.182-.217.251-.307.235-.303l-.32.052-.297.047-.153.095c-.312.191-.543.391-.681.588-.028.04-.062.087-.075.103-.035.042-.09.163-.138.3a1.98 1.98 0 0 1-.298.575l-.06.079.02.259.022.258.099.333c.056.182.116.372.136.42.076.182.194.4.28.517.047.062.086.113.087.111.001-.002-.027-.189-.062-.415a18.245 18.245 0 0 1-.063-.415c0-.002.063.066.136.149.073.084.135.15.137.148.002-.002-.003-.19-.011-.42a24.068 24.068 0 0 1-.014-.416l.084-.03c.15-.049.244-.162.303-.361l.03-.1v.164c0 .091.005.165.009.165a.413.413 0 0 0 .108-.08c.048-.056.126-.209.16-.311.04-.119.053-.189.066-.34l.007-.088.037.098c.042.109.012.082.25.234l.076.049.165-.19.166-.189.003.137.003.138h.208l.085-.11.085-.11.144.002h.143l-.133.067a.734.734 0 0 0-.134.076c0 .014.077.21.083.21l.21-.055.205-.055.003.097a.286.286 0 0 0 .012.097c.048 0 .245.026.319.042a.595.595 0 0 1 .263.123l.031.033h-.227c-.125 0-.228.002-.228.004 0 .003.167.3.173.307.002.003.534.084.552.085.008 0 .137.2.133.205a3.186 3.186 0 0 1-.226-.058l-.222-.06.03.037c.015.021.115.147.22.28.105.135.19.246.188.248a1.54 1.54 0 0 1-.16-.03 1.743 1.743 0 0 0-.162-.032 5.47 5.47 0 0 0 .118.298c.067.161.12.295.119.297a1.066 1.066 0 0 1-.14-.022 8.52 8.52 0 0 0-.137-.026c-.002 0-.003.122-.003.272 0 .254-.001.271-.018.266l-.087-.022c-.038-.01-.077-.018-.086-.022-.018-.005-.02.009-.02.188.001.107 0 .194-.001.194-.002 0-.079-.02-.171-.046a1.515 1.515 0 0 0-.172-.043 5.111 5.111 0 0 0-.054.237l-.05.233-.001-.113-.001-.113-.153.004-.153.003-.139.238-.137.237-.003-.214-.002-.215-.03.005a5.46 5.46 0 0 1-.195.027c-.091.011-.17.024-.174.026a.896.896 0 0 0-.067.104.368.368 0 0 1-.07.094 1.145 1.145 0 0 1-.077-.113l-.07-.108-.207-.006a2.161 2.161 0 0 1-.285-.022c-.13-.027-.21-.051-.203-.058a.926.926 0 0 1 .137-.033.695.695 0 0 0 .129-.03.967.967 0 0 0-.08-.085l-.083-.08-.235-.016a6.01 6.01 0 0 1-.238-.02 1.329 1.329 0 0 1 .153-.055.818.818 0 0 0 .158-.06c0-.007-.167-.258-.188-.28a1.746 1.746 0 0 0-.2-.04 3.82 3.82 0 0 1-.21-.039c-.01-.003.005-.013.039-.027.03-.012.055-.027.055-.032a.382.382 0 0 0-.035-.068c-.069-.11-.214-.229-.43-.346l-.101-.057.12-.003a.614.614 0 0 0 .121-.008.81.81 0 0 0-.085-.174 1.04 1.04 0 0 0-.271-.211l-.077-.042.1-.003a.334.334 0 0 0 .102-.01c0-.004-.011-.104-.026-.221l-.026-.214-.18-.18-.18-.179.146.046.149.047c.001 0 .002-.069.002-.153v-.155l-.133-.134c-.088-.088-.122-.128-.098-.114l.108.06.07.038v-.294l-.1-.174-.154-.263c-.029-.048-.045-.083-.038-.077l.117.086.103.075.05-.102c.048-.101.049-.103.049-.206 0-.15-.024-.213-.154-.397L1.07 15.9l.152-.003.152-.003v-.17c0-.239.04-.604.1-.893.013-.066.023-.12.022-.122a7.493 7.493 0 0 0-.293.18l-.29.182H.326l-.005.023c-.003.014-.023.11-.043.217-.083.432-.074.938.019 1.222.023.071.027.11.038.35.006.148.023.372.037.498.04.36.081.543.188.84.038.105.067.192.066.193-.002 0-.142-.1-.312-.223l-.31-.227-.003.191-.002.191.243.443.245.444H.55a.725.725 0 0 1 .434.169.538.538 0 0 1 .126.184c.035.069.064.129.064.132 0 .002-.12.006-.267.007l-.267.003.212.215c.263.266.499.47.768.666.283.204.468.303.726.387a.366.366 0 0 1 .102.042c-.01.017-.164.02-.263.005-.419-.063-.886-.4-1.43-1.026a1.957 1.957 0 0 0-.133-.145c-.002.002.008.183.023.402l.026.4.186.408.186.407.156.107c.086.058.16.112.166.117.007.007.049.337.05.396 0 .007-.119-.082-.263-.198a39.07 39.07 0 0 0-.321-.258l-.057-.045.066.125c.732 1.375.682 1.285.722 1.297.118.038.307.193.418.345.066.09.249.402.24.41-.01.01-.199-.075-.288-.131-.124-.078-.202-.145-.4-.337l-.15-.147.316.537c.174.295.324.543.334.55.01.008.057.04.106.072.094.061.307.258.426.395.075.084.293.389.286.397a5.933 5.933 0 0 1-.335-.105l-.33-.108.334.327c.356.35.546.51.803.678l.128.083.263.337c.145.186.261.34.259.341a6.658 6.658 0 0 1-.332-.099l-.33-.102.146.146c.324.324.834.737 1.176.952l.213.134.236.264c.13.146.236.267.236.27 0 .002-.138.006-.307.007l-.305.003.348.221.348.223h.541l.084.125.082.125h.426l.188.151.188.151h.227l.065.066a.473.473 0 0 1 .065.073c0 .004-.095.007-.211.007h-.213l-.14.048-.138.05.006.037a.322.322 0 0 0 .085.149c.044.043.225.122.327.144.05.011.183.032.295.047.132.018.327.055.55.105l.345.078.207.141.208.14.043-.073.043-.073.044.035c.176.141.5.237.85.252l.166.007-.007.028c-.024.097-.23.186-.538.23a4.012 4.012 0 0 1-.16.022c-.006 0-.01.038-.01.085v.087l-.166.066c-.09.037-.168.07-.172.073a.46.46 0 0 0 .083.099l.09.09h1.028l.185.062c.164.056.2.063.319.074.149.012.178.01.358-.042.092-.026.162-.035.54-.068l.436-.037.16-.084c.087-.046.16-.081.16-.079 0 .002-.172.14-.383.306l-.382.301-.001.117a.65.65 0 0 0 .005.118c.022 0 1.891-.127 1.944-.132l.065-.006.336-.354.336-.353h.19c.15 0 .187.003.178.012-.006.008-.198.166-.426.353l-.414.339v.268c-.001.148.001.27.004.27s.112-.043.244-.094c.182-.07.271-.111.375-.174.204-.12.476-.258.624-.313.351-.13.508-.176 1.012-.295l.336-.08.087-.257.087-.256.137-.048c.076-.027.14-.046.142-.044a.97.97 0 0 1-.068.139 2.344 2.344 0 0 0-.222.537c-.03.125-.068.361-.06.37.003.003.298-.218.656-.491l.65-.496.23.031.231.033.229-.144c.127-.078.233-.146.237-.15a.871.871 0 0 0 .024-.126c.037-.254.096-.455.189-.633.046-.09.047-.09.041-.044a26.6 26.6 0 0 0-.074.737c.006.006.616-.08.64-.09.014-.005.208-.236.434-.516l.411-.506v-.217l.001-.217.164-.097c.089-.053.165-.095.166-.094.002.003-.032.177-.075.388a7.652 7.652 0 0 0-.073.39c.01.01.169-.03.24-.06.152-.065.287-.189.54-.497a3.86 3.86 0 0 1 .26-.283l.12-.114.026-.13c.015-.073.032-.226.042-.353.027-.377.059-.533.128-.638l.03-.044.006.188c.008.231.02.335.068.518.033.135.138.435.15.435.004 0 .038-.108.077-.24l.07-.24.442-.715.44-.717-.09-.413c-.049-.227-.092-.419-.094-.426-.003-.006.075.054.171.136l.175.15-.002.046c-.017.466.006.63.115.816.053.088.055.09.062.063.005-.016.03-.267.055-.558l.048-.53.077-.107c.16-.22.265-.465.295-.675a1.808 1.808 0 0 0-.168-1.033.423.423 0 0 1-.045-.123c.02-.008.112.047.161.097.047.047.057.064.087.162.018.06.05.184.07.276.049.216.082.315.138.412.048.084.07.108.133.145l.039.024.184-.374.185-.374-.006-.146a5.744 5.744 0 0 0-.447-1.935c-.075-.164-.078-.174-.06-.156.008.008.105.13.215.268.193.242.205.259.297.443l.096.191.046-.136c.094-.291.11-.58.045-.863a1.961 1.961 0 0 0-.365-.748 3.493 3.493 0 0 0-.224-.238l-.144-.14.016-.038c.078-.177.097-.298.078-.482a.932.932 0 0 0-.139-.409.84.84 0 0 1-.067-.14c.003-.003.22-.049.485-.102l.478-.097.16.095c.243.145.344.227.425.346.097.141.144.262.167.423.006.043.023.372.038.732l.027.654-.022.087a3.003 3.003 0 0 1-.044.154c-.079.244-.332.616-.604.889a2.211 2.211 0 0 0-.149.157.85.85 0 0 0 .241.044c.136.008.31-.013.52-.063a.92.92 0 0 1 .152-.028c.004.004.084.13.18.28l.174.273.012.098c.024.216.024.29 0 .497a2.48 2.48 0 0 1-.197.797l-.09.228-.989.793c-.544.436-.991.797-.994.801a.914.914 0 0 0 .132.138c.243.226.346.423.387.73.014.098.005.183-.032.35l-.022.096-.45.376-.45.375-1.09.324-1.096.323a.42.42 0 0 1-.029-.066l-.024-.066-.255.152-.254.152-.001.522v.521l-.265.291c-.145.16-.271.295-.28.3-.008.005-1.069.253-2.357.551l-2.34.543-.98.114c-.537.064-.991.12-1.007.123-.022.006.114.037.514.12l.543.113 2.211-.21 2.21-.208 2.26-.918 2.26-.918 2.082-1.567 2.082-1.567 1.254-1.832 1.253-1.833.698-1.932.698-1.93-.147-1.785-.168-2.038-.02-.251-.963-2.09-.962-2.09-1.434-1.342-1.435-1.342-1.924-.788-1.925-.788-1.486-.094-1.485-.094-1.127.209-1.126.209-.869.546-.867.548-.452.582c-.249.32-.451.583-.45.585.002.002.166-.074.366-.17l.363-.171.464.036c.254.02.466.04.47.044l.09.127c.228.327.416.64.631 1.055l.116.224.022.466.023.465-.066.113c-.115.2-.23.337-.397.471-.131.107-.176.121-.413.138a1.447 1.447 0 0 1-.282-.001l-.105-.012-.09-.07a1.644 1.644 0 0 1-.375-.406c-.006.006.03.152.063.258.059.184.059.258.001.346-.035.053-.125.077-.288.076a.439.439 0 0 1-.292-.084c-.14-.088-.373-.353-.583-.66-.058-.084-.107-.156-.111-.16a.502.502 0 0 0 .019.114.525.525 0 0 1 .013.225.637.637 0 0 1-.218.434l-.08.075-.168-.002h-.17l-.101-.121a4.157 4.157 0 0 1-.169-.216 4.067 4.067 0 0 1-.277-.515c-.027-.064-.031-.065.112.036.068.048.168.102.32.172.122.056.28.133.354.17l.133.069.013-.044a.416.416 0 0 0-.06-.277c-.015-.023-.18-.143-.472-.344a23.25 23.25 0 0 1-.463-.32 3.909 3.909 0 0 1-.042-.492c.002-.002.077.07.166.16l.162.164.215.085c.118.047.216.084.218.082.002-.002-.114-.284-.255-.627l-.268-.645c-.006-.017.018-.07.11-.23.135-.24.159-.276.24-.35l.06-.053v.554l.133.246c.073.134.135.243.136.24.002-.002.01-.117.019-.257.01-.14.025-.32.037-.4a2.892 2.892 0 0 0 0-.913l-.02-.141.154-.154.155-.155.036.024c.084.056.106.264.063.593l-.021.167c0 .011.102-.097.161-.173a1.45 1.45 0 0 0 .252-.476c.044-.17.063-.3.063-.433v-.126l.152-.03.152-.03.062-.078c.133-.169.172-.213.233-.26a.517.517 0 0 1 .096-.061l.034-.012-.015.039a76.68 76.68 0 0 0-.44 1.116c.002.002.135-.083.297-.189l.295-.192.168-.234.167-.236.022-.274c.011-.152.022-.276.024-.276l.317-.236.327-.242c.017-.01.038-.059-.238.565-.131.296-.237.541-.235.543a1.03 1.03 0 0 0 .132-.068.966.966 0 0 0 .232-.17c.148-.141.31-.356.414-.55l.086-.159v-.475l.305-.187c.167-.102.306-.184.31-.182.002.004-.073.226-.168.495-.095.269-.171.49-.169.492a.358.358 0 0 0 .078-.028c.09-.039.216-.128.297-.214a2.25 2.25 0 0 0 .294-.424l.07-.132v-.592l.205-.204c.189-.186.203-.2.198-.166-.028.178-.158 1.08-.156 1.082.001.001.038-.038.08-.089.152-.175.278-.397.413-.726l.059-.144-.032-.293-.032-.293.08-.298c.042-.164.08-.306.083-.316.004-.014.025-.004.115.06.103.075.109.081.115.123l.038.362.033.32a.74.74 0 0 0 .084-.078l.08-.08.014-.1c.008-.063.012-.199.011-.38a2.268 2.268 0 0 0-.035-.485 4.125 4.125 0 0 0-.09-.414l-.056-.21v-.357l-.069-.12-.067-.12.056.044.161.128.105.084.165.284c.091.157.168.283.17.28a1.309 1.309 0 0 0-.034-.17 3.865 3.865 0 0 0-.36-.99l-.08-.148-.15-.061-.148-.06-.19-.28a5.64 5.64 0 0 1-.187-.284c.001-.001.162.074.355.167.193.093.352.167.353.162a1.316 1.316 0 0 0-.036-.152l-.04-.146-.064-.003-.064-.003-.024-.059a.438.438 0 0 0-.119-.15.88.88 0 0 0-.437-.24.622.622 0 0 1-.172-.061 1.993 1.993 0 0 0-.467-.235l-.225-.086-.004.124-.003.124.175.246c.096.136.172.247.17.25a5.572 5.572 0 0 1-.215-.185l-.213-.187v-.322H17.4l-.126-.1a1.438 1.438 0 0 1-.122-.105c.002 0 .195.016.43.039l.425.042.174-.079.175-.078.113.017c.076.011.19.017.359.017a1.58 1.58 0 0 0 .372-.023c.37-.07.51-.114.81-.26.219-.103.228-.107.297-.107h.072l.196-.227.222-.255c.015-.016.023-.029.017-.028-.005 0-.14.05-.298.111Zm-5.347.472c.338.024.574.093.74.216.042.033.075.06.073.063a57.893 57.893 0 0 1-1.125-.031 2.007 2.007 0 0 1 .142-.258l.17.01Zm-7.49 2.903v.076l-.488.29c-.268.158-.49.288-.493.288-.003 0-.005-.102-.005-.228v-.229l.108-.029c.109-.03.87-.24.875-.243a.69.69 0 0 1 .002.075ZM2.1 9.775l-.337.396-.254.3-.002.377-.003.378-.056-.071a1.595 1.595 0 0 1-.197-.391.612.612 0 0 1 .01-.334.977.977 0 0 1 .062-.144l.03-.054h.124l.145-.17.237-.276.092-.107h.232l-.083.096Z"/><path d="m11.663.899-.163.137-.03.084a1.169 1.169 0 0 0-.074.457c0 .102-.002.186-.002.186s-.077-.098-.17-.22c-.16-.206-.173-.225-.22-.346a1.054 1.054 0 0 0-.054-.12l-.021.288-.021.284.094.148c.17.268.336.409.572.486.146.047.222.058.482.074.284.018.41.003.666-.08.11-.034.172-.062.277-.123.132-.076.142-.08.357-.137.121-.031.313-.087.425-.124.397-.128.557-.166.703-.165h.09l.143.106.144.105.035-.044a.393.393 0 0 0 .057-.336l-.014-.052-.078-.008a3.71 3.71 0 0 0-.314-.004c-.29.006-.376.021-.692.124-.14.045-.267.103-.405.186-.16.096-.626.258-.833.29-.32.05-.505.038-.669-.045a.583.583 0 0 1-.252-.243c-.051-.082-.054-.088-.065-.198-.018-.183.012-.415.064-.487.017-.022.14-.362.133-.36-.002 0-.076.062-.165.137ZM20.055 1.206c-.378.02-.688.037-.691.04-.002.002.052.175.124.381l.128.376.049.014.222.064.175.049.14-.115c.077-.063.141-.114.142-.113 0 0-.012.112-.029.247l-.03.247c0 .002.11.003.246.003h.246l.134-.087c.073-.048.14-.09.147-.094a.882.882 0 0 1-.05.176l-.061.182h.461l.322.095c.177.052.326.098.332.101.02.013-.26.065-.482.09-.359.042-.536.056-.806.069l-.25.011-.26.121A6.304 6.304 0 0 0 20 3.19c-.004.004.097.061.224.127.128.065.238.124.246.13.01.008-.002.038-.06.14-.186.33-.341.557-.576.842l-.114.136-.031.165c-.018.09-.03.168-.027.17.002.002.073-.032.157-.076.085-.044.155-.078.157-.076.003.002-.004.155-.015.34l-.021.337.073.34c.079.365.135.555.223.748.029.063.055.12.06.124.014.014.091-.085.134-.174.024-.047.055-.127.07-.177.033-.107.02-.116.13.077.166.296.393.561.617.723l.098.069.327.068c.18.036.33.064.33.063a7.637 7.637 0 0 0-.054-.395c-.004-.026.01-.019.19.103l.195.133.123-.058.123-.057.19.081.191.082.349.016c.19.009.349.015.35.012a4.1 4.1 0 0 0-.143-.263 2.245 2.245 0 0 1-.14-.266c.006-.004.103-.052.22-.106.447-.21.792-.46.963-.695l.04-.055-.077.006c-.148.013-.42.028-.424.025a7.301 7.301 0 0 1 .242-.269l.245-.266v-.62h-.057a.693.693 0 0 0-.32.085.393.393 0 0 1-.055.03c-.004 0-.009-.105-.01-.231l-.003-.232-.115-.05a3.69 3.69 0 0 0-.588-.187 7.622 7.622 0 0 0-.57-.099c-.001.001.088.08.198.172.111.094.206.18.21.192.005.013.03.165.058.34l.048.318-.15.534a7.723 7.723 0 0 1-.156.527 4.555 4.555 0 0 1-.084-.297 3.967 3.967 0 0 0-.083-.289.831.831 0 0 0-.052.118c-.09.227-.2.422-.277.489a.164.164 0 0 1-.04.03c-.006 0-.009-.043-.009-.093V5.96l-.102.02a.65.65 0 0 1-.328 0 .577.577 0 0 0-.212-.024h-.144v.032c0 .016-.004.031-.008.031-.04-.001-.373-.031-.376-.033a1.459 1.459 0 0 1 .143-.091.653.653 0 0 0 .139-.095 6.41 6.41 0 0 0-.297-.11c-.158-.056-.29-.104-.293-.106a.846.846 0 0 1 .097-.105c.055-.057.102-.106.102-.11 0-.004-.086-.114-.191-.245l-.2-.25c-.007-.007.064.031.156.085.09.055.168.097.17.095a5.852 5.852 0 0 0-.092-.313L21 4.43l.151.15c.083.082.151.146.151.142 0-.018-.042-.58-.048-.642l-.007-.066.17.12.168.121.18-.303.182-.303.003.194c.001.107.005.193.008.193.002 0 .144-.086.316-.193l.313-.193.003.136c.001.074.004.136.006.136l.362-.087.358-.088v.114c0 .062.002.113.006.113.003 0 .092-.036.2-.08a.97.97 0 0 1 .202-.07c.005.005.022.078.038.162l.028.155h.858l-.12.182-.12.183h.271c.15 0 .273 0 .273.002l-.037.3c-.032.27-.034.298-.02.31.01.006.172.098.362.202.19.106.342.194.338.197a1.422 1.422 0 0 1-.176.03l-.244.035-.076.01v.12c0 .065 0 .118.003.118l.55.109.547.11.206.167c.112.093.204.172.204.175 0 .005-.135.035-.302.068a30.21 30.21 0 0 0-.35.072l-.05.01v.228h.283l.55.32c.302.176.549.321.548.322a6.702 6.702 0 0 1-.27-.038 1.986 1.986 0 0 0-.276-.031c-.004.004-.04.059-.08.122-.058.092-.069.115-.057.125.007.006.38.217.825.468l.812.458.086.155c.047.086.084.159.081.162a1.422 1.422 0 0 1-.177.01.97.97 0 0 1-.416-.056.622.622 0 0 0-.076-.025c-.015 0 .106.218.153.276.083.103.254.27.337.328.046.033.164.106.262.163l.178.1.27.268c.149.147.268.268.267.27a9.303 9.303 0 0 1-.32-.1 4.151 4.151 0 0 0-.314-.096l.257.44.253.432.322.177c.178.097.329.182.336.188.01.008.005.032-.028.12-.023.06-.043.116-.047.123-.003.008-.081-.039-.224-.133l-.22-.146.038.138.035.138.386.386.386.386.144.223c.08.122.143.223.14.225a3.531 3.531 0 0 1-.242-.067 3.63 3.63 0 0 0-.238-.066l.713 1.515.712 1.51.13.662c.073.362.23 1.17.35 1.793.12.624.219 1.133.22 1.132.001-.001-.025-.563-.059-1.248l-.068-1.403c-.024-.546-.235-4.733-.238-4.736a5.401 5.401 0 0 0-.207.293l-.201.297h-.188v-2.081l-.104-.203-.102-.203-.016.052-.15.55c-.087.318-.139.492-.144.48a7.86 7.86 0 0 1-.06-.342l-.053-.323-.037-.65a28.102 28.102 0 0 0-.038-.655 7.2 7.2 0 0 0-.23.377c-.187.319-.226.377-.232.357-.004-.013-.092-.54-.197-1.171-.105-.631-.192-1.155-.195-1.163a2.97 2.97 0 0 0-.151.344 2.788 2.788 0 0 1-.151.344c-.005-.008-.21-.52-.457-1.136-.331-.827-.45-1.113-.455-1.095l-.071.406a8.63 8.63 0 0 1-.071.388 49.04 49.04 0 0 1-.494-1.165 40.233 40.233 0 0 0-.494-1.16c-.004.008-.047.204-.095.437a7.86 7.86 0 0 1-.094.426c-.004 0-.371-.494-.817-1.095a87.946 87.946 0 0 0-.814-1.092c-.002.002.008.188.022.415l.026.424c0 .008-.378-.339-.839-.77l-.84-.782-.001.396-.003.395-.632-.232c-.346-.126-.629-.231-.628-.232.002-.002.131-.022.288-.044a4.96 4.96 0 0 0 .292-.047c.003-.003.028-.098.056-.212l.055-.235.008-.029h-.252l-1.017-.427c-.84-.354-1.025-.428-1.063-.427l-.73.037ZM1.4 14.133l-.21.208H.713l-.255-.189-.267-.2a.555.555 0 0 0 .056.135l.143.297.073.152.15.005c.156.007.24.026.32.074l.036.022-.036.008-.125.02c-.176.023-.4.129-.51.24l-.05.051h.569l.19-.12c.291-.184.475-.357.607-.571a.9.9 0 0 0 .116-.244c.007-.027.013-.06.016-.074.005-.022.003-.023-.065-.023H1.61l-.21.209Z"/></g><defs><clipPath id="a"><path fill="#fff" d="M0 0h32v33H0z"/></clipPath></defs></svg>