<svg xmlns="http://www.w3.org/2000/svg" width="936" height="413" fill="none"><path fill="#fff" d="M226.699 20.585c-11.831.71-22.108 2.505-31.262 5.44-17.26 5.553-30.439 14.77-40.735 28.475-8.836 11.722-14.583 25.95-16.829 41.561-.787 5.516-.936 7.871-.936 14.621 0 8.002.393 12.059 1.815 18.977 3.407 16.602 11.457 32.325 22.146 43.263 8.761 8.955 21.303 16.602 35.007 21.332 12.055 4.169 24.392 6.319 39.78 6.936 20.142.804 41.67-3.066 54.943-9.89 3.089-1.589 3.706-2.505 4.025-6.039.112-1.271.224-12.134.262-26.904.093-28.025.224-31.877 1.254-35.672.842-3.179 2.396-4.992 5.129-6.002 1.142-.43 5.279-1.14 6.664-1.14 1.554-.019 2.453-.281 3.033-.935 1.048-1.178.468-3.01-1.142-3.59-.898-.317-6.664-.299-16.23.056-8.78.318-9.997.318-19.094.019-10.203-.355-18.327-.392-19.226-.075-1.048.374-1.647 1.197-1.647 2.263 0 1.607 1.198 2.243 4.23 2.262 5.13.019 10.034 1.365 12.3 3.384 1.909 1.683 2.826 4.263 3.332 9.329.28 2.992.468 48.218.187 50.667-.243 2.262-.936 3.721-2.321 4.955-5.242 4.73-23.419 7.254-38.882 5.403-19.094-2.262-36.223-10.526-49.776-24.006-10.334-10.264-18.739-26.904-22.277-44.123-1.947-9.479-2.359-19.538-1.217-29.896 1.591-14.583 6.309-27.52 13.535-37.205 4.979-6.637 12.168-12.302 21.191-16.64 5.896-2.842 11.531-4.618 18.327-5.796 8.461-1.458 20.723-1.72 31.168-.654 17.11 1.72 31.6 7.236 38.844 14.77 1.91 1.982 2.733 3.197 3.932 5.777 1.609 3.403 2.527 6.75 3.088 11.124.375 2.955.599 3.646 1.273 4.226 1.198 1.01 3.108.299 3.669-1.365.188-.505.281-3.066.394-9.124.168-9.292.393-13.685.954-19.724.225-2.207.431-4.992.487-6.189l.094-2.168-.637-.636c-.861-.879-1.741-1.103-5.073-1.309-6.028-.355-10.146-.935-19.413-2.674-5.953-1.121-13.534-2.15-20.779-2.841-3.8-.356-19.113-.524-23.587-.243ZM659.861 58.183c-3.22 1.159-3.482 1.178-27.593 1.178-11.738 0-24.505-.038-28.361-.094-6.421-.093-7.076-.075-7.619.224-.636.356-1.104 1.384-.917 1.982.075.187.337.542.58.785.412.393.73.45 2.864.599 5.841.374 8.218 1.626 9.229 4.805.805 2.598.824 3.926.824 47.413 0 41.431-.056 46.105-.674 51.022-.58 4.656-1.516 7.124-2.995 7.89-.693.355-2.752.748-4.811.935-1.91.15-2.659.636-2.659 1.701 0 .842.263 1.29.993 1.683.524.299 1.085.337 4.53.299 2.171-.037 6.046-.131 8.611-.243 3.763-.168 5.953-.149 11.232.094 14.62.635 34.726.878 36.822.448 2.864-.617 3.838-2.075 4.643-7.086.674-4.169 1.497-11.18 1.497-12.713 0-2.225-.411-2.991-1.666-2.991-1.254 0-1.628.654-2.377 4.15-1.254 5.927-3.257 8.507-7.638 9.853-2.752.841-4.343.991-11.587 1.085-4.568.074-7.62.018-8.986-.113-6.196-.654-8.536-2.15-9.566-6.132-.618-2.337-.693-5.684-.636-26.137l.056-20.192 4.867.037c9.304.094 17.84.524 19.937 1.028 2.284.543 4.137 1.907 4.867 3.59.505 1.122.936 3.459.936 4.973 0 1.459.337 2.487.898 2.786.562.299 1.648.243 1.985-.094.618-.616.73-1.177.88-4.561.262-5.628.711-10.339 1.31-14.097.749-4.562.58-5.347-1.161-5.347-.486 0-.861.261-2.115 1.495-.842.804-1.835 1.608-2.228 1.776-1.441.599-4.249.86-11.176 1.029-3.762.093-9.584.168-12.972.187h-6.122l.038-22.305.056-22.286 3.088-.056c5.186-.094 18.047.3 20.124.617 7.283 1.103 9.173 2.917 9.566 9.161.15 2.318.412 3.01 1.273 3.365.936.393 1.704.075 2.191-.878.43-.86.617-2.263 1.01-8.283.263-4.113.562-6.32 1.142-8.787.749-3.234-.018-4.58-2.19-3.795ZM360.94 59.211c-.693.355-1.572 1.739-2.284 3.608-.524 1.346-6.271 17.051-22.913 62.539-7.488 20.454-13.984 38.085-14.452 39.169-1.535 3.533-2.883 5.646-4.68 7.31-2.171 2.001-4.511 2.842-8.48 3.066-1.292.056-2.621.206-2.939.318-1.797.542-1.442 2.861.487 3.272.823.187 9.21.112 14.994-.112 3.127-.131 5.804-.112 10.352.093 4.606.206 6.403.225 7.133.075.992-.206 1.61-.654 1.872-1.383.187-.505-.225-1.571-.693-1.833-.224-.131-1.385-.28-2.564-.336-2.528-.15-3.744-.58-4.755-1.702-.843-.916-.974-1.664-.693-3.963.393-3.141 1.142-5.665 5.635-18.921 5.372-15.835 5.597-16.509 5.934-16.845.225-.224 2.677-.262 16.998-.262h16.754l.262.411c.487.767 14.564 38.178 14.658 38.982.15 1.253-.037 1.702-.955 2.113-.936.449-1.291.991-1.198 1.869.094.898.712 1.29 2.49 1.496 1.909.225 24.898.636 27.106.486 2.153-.149 3.202-.579 3.482-1.458.45-1.384-.486-2.206-2.489-2.206-2.846 0-6.627-1.01-8.499-2.244-2.509-1.682-4.905-4.879-7.338-9.778-2.397-4.805-12.768-31.316-34.164-87.255-4.493-11.723-5.336-13.817-6.159-15.219-.824-1.402-1.816-1.85-2.902-1.29Zm5.841 45.806c4.099 11.61 7.432 21.145 7.432 21.22 0 .093-6.478.15-14.415.15-11.288 0-14.414-.057-14.414-.225 0-.131 2.602-8.226 5.784-18.004 3.201-9.76 6.271-19.22 6.852-20.996.58-1.758 1.104-3.216 1.198-3.216.075 0 3.482 9.48 7.563 21.071ZM454.989 59.155c-.711.318-1.31 1.383-1.572 2.823-.113.617-.431 3.104-.674 5.515-.262 2.412-1.273 11.63-2.265 20.473-.974 8.843-3.276 29.783-5.13 46.553-1.853 16.752-3.463 31.111-3.575 31.878-.449 3.29-1.273 5.515-2.434 6.693-1.198 1.215-2.658 1.664-6.196 1.888-1.61.112-2.134.225-2.546.524-.973.729-.693 2.112.58 2.804.525.299 1.049.337 3.875.299 1.798-.018 5.055-.131 7.226-.243a74.996 74.996 0 0 1 7.676 0c2.059.112 5.616.206 7.937.243 4.867.038 5.41-.075 5.915-1.29.637-1.533-.149-2.206-2.882-2.393-2.584-.168-5.167-.748-6.047-1.327-.393-.262-.955-.823-1.236-1.253l-.524-.785.019-4.955c.019-4.524.131-6.263 1.273-19.182.674-7.815 2.003-23.053 2.92-33.84.936-10.807 1.704-19.8 1.741-20.005.056-.262.206-.075.562.673.262.58 2.209 4.805 4.324 9.404 11.663 25.24 14.77 31.69 23.587 49.19 10.484 20.753 12.187 23.95 13.385 24.997.562.486.749.561 1.46.467 1.124-.112 1.666-.692 2.827-2.898.524-.991 5.504-11.498 11.082-23.314 5.579-11.835 14.228-30.194 19.244-40.795 4.999-10.62 9.155-19.257 9.211-19.164.075.075.898 8.544 1.853 18.827.955 10.283 2.565 27.633 3.594 38.571 1.816 19.575 2.097 23.576 1.629 23.949-.131.113-.524.412-.843.692-.505.393-.617.617-.617 1.215 0 1.777 1.441 2.207 8.705 2.599 10.707.58 23.212.785 24.279.412 1.404-.505 2.097-2.02 1.273-2.842-.468-.468-.73-.524-3.556-.636-3.763-.168-7.339-.916-9.229-1.944-1.161-.617-2.865-2.45-3.632-3.87-.73-1.403-1.46-3.59-1.928-5.796-.412-2.001-.524-2.917-2.34-19.538-6.964-63.698-8.93-81.46-9.098-82.245-.562-2.636-2.584-3.384-4.1-1.551-.356.41-5.466 11.086-12.374 25.838-6.477 13.835-16.604 35.429-22.483 47.993-5.896 12.564-10.782 22.791-10.857 22.716-.112-.112-10.465-21.276-16.343-33.41-1.947-4.039-20.236-41.58-26.133-53.64-2.452-5.029-4.661-9.367-4.886-9.61-.43-.467-1.422-.972-1.872-.972-.131.019-.486.131-.805.262ZM812.261 79.515l-.843.411h-37.196l-.468.543c-.337.392-.431.654-.337 1.028.206.841.524.99 2.377 1.16 2.246.205 2.714.317 3.594.803.936.524 1.386 1.44 1.629 3.365.131 1.029.168 11.947.112 32.008-.093 32.831-.075 32.569-1.048 34.775-.449.991-1.105 1.328-2.883 1.496-.636.056-1.385.187-1.666.299-.562.206-.917.991-.711 1.552.355.935.037.916 11.774.953 6.815.019 11.195-.037 11.588-.149 1.048-.318 1.329-1.515.524-2.169-.355-.262-.917-.393-2.246-.486-4.455-.299-5.017-.729-5.541-4.132-.281-1.795-.487-10.638-.524-23.613l-.038-9.573 5.934.019c8.013 0 10.727.168 11.981.729 1.123.468 2.153 1.515 2.453 2.449.112.356.299 1.309.411 2.113.094.823.3 1.608.412 1.757.637.767 1.816.617 2.172-.28.112-.28.262-1.57.318-2.86.15-3.16.449-6.32.768-8.133.355-2.001.336-2.45-.113-2.898-.636-.636-1.235-.486-2.302.635-.618.617-1.255 1.103-1.723 1.253-.561.168-3.276.243-10.52.299l-9.791.094V85.012l7.357.13c4.025.075 7.769.225 8.274.319 1.273.224 3.183 1.196 3.613 1.813.487.692.768 1.59.993 3.122.262 1.945.842 2.58 1.928 2.15.805-.299 1.011-1.14 1.329-5.178.15-2.038.412-4.244.561-4.918.394-1.776.356-2.374-.187-2.898-.543-.56-.861-.56-1.965-.037ZM729.986 83.59c-8.349.917-15.182 3.965-20.704 9.274-7.32 7.049-11.401 16.752-11.382 27.072 0 14.116 7.132 26.474 18.551 32.195 5.167 2.58 10.708 3.796 17.335 3.796 9.585 0 17.971-3.01 24.561-8.844 8.031-7.086 12.355-17.182 12.355-28.792 0-1.664-.094-3.795-.187-4.711-1.853-16.135-12.842-27.185-29.578-29.727-2.396-.356-8.648-.505-10.951-.262Zm3.089 35.879v31.428l-.693-.131c-1.46-.243-3.912-.803-4.399-.99l-.524-.206V88.658l1.273-.206c1.535-.243 2.302-.318 3.463-.355l.88-.038v31.41Zm5.11-31.017c.618.112 1.648.355 2.303.56l1.198.375-.037 30.512-.057 30.512-1.216.225c-.674.112-2.041.28-3.033.355l-1.835.131V88.059l.805.112c.431.056 1.273.187 1.872.28Zm-13.16 30.456c0 23.8-.037 29.54-.243 29.54-.375 0-2.977-1.533-4.418-2.599-1.853-1.364-4.923-4.636-6.234-6.637-3.95-5.983-5.859-12.433-6.084-20.584-.168-5.534.337-9.405 1.722-13.649 2.003-6.113 5.953-11.068 11.027-13.853 1.366-.748 3.612-1.72 4.006-1.74.168-.018.224 6.002.224 29.522Zm20.854-27.67c2.265 1.327 3.707 2.449 5.635 4.375 4.493 4.505 7.394 10.675 8.499 18.041.243 1.571.58 7.404.487 8.526-.038.411-.113 1.626-.188 2.711-.486 8.32-3.463 15.518-8.236 19.967-1.966 1.851-5.579 4.058-7.526 4.618l-.43.113v-29.54c0-23.726.056-29.56.243-29.56.131 0 .805.337 1.516.749ZM63.124 204.275c-.487.337-.955 1.197-1.61 2.954-.75 2.001-4.643 19.351-5.186 23.146-.393 2.618.187 3.889 1.779 3.889 1.291 0 1.778-.542 3.37-3.814 1.516-3.085 3.182-5.758 4.455-7.142 2.32-2.543 5.971-3.907 12.224-4.562 2.078-.205 13.141-.467 29.259-.673l10.539-.131-.074 66.914c-.094 80.132-.169 83.18-1.91 90.509-.861 3.627-2.059 5.44-4.043 6.188-1.217.449-3.988.935-6.159 1.084-2.003.131-2.696.356-3.183.954-.486.636-.486 1.795 0 2.487.712.99 1.423 1.121 6.197 1.121 2.377 0 7.637-.131 11.662-.299 6.028-.243 8.218-.262 12.468-.075 8.199.337 23.156.468 24.092.206 1.704-.467 2.49-1.795 1.854-3.141-.412-.879-1.105-1.103-3.857-1.253-3.444-.187-8.648-.822-9.996-1.233-3.669-1.141-5.242-3.889-6.009-10.564-.899-7.946-1.03-18.098-1.161-88.77l-.112-64.072h74.206c199.948 0 632.642.393 635.712.561 10.128.599 17.71 2.319 22.427 5.086.58.336 1.703 1.252 2.49 2.037 1.778 1.758 2.134 2.618 2.415 5.722.28 2.897.599 4.001 1.329 4.618 1.029.86 2.452.504 3.089-.767.673-1.365.486-3.234-.918-8.937-2.377-9.703-3.051-13.255-3.294-17.144-.113-1.982-.206-2.487-.525-2.917-.655-.879-1.029-.897-4.511-.243-4.418.823-8.237 1.271-12.954 1.496-5.392.28-765.05.28-770.328.018-7.545-.373-14.115-.953-16.343-1.42-.73-.15-2.377-.692-3.65-1.197-2.453-.991-3.09-1.103-3.744-.636Z"/><path fill="#fff" d="M471.182 243.986c-12.636.897-23.718 4.805-32.854 11.573-13.852 10.264-23.119 27.278-25.01 45.899-.28 2.861-.112 10.807.3 13.761 1.385 10.04 4.212 18.453 8.78 26.137 4.455 7.478 10.913 14.153 18.177 18.827 13.272 8.544 32.123 11.517 49.589 7.834 18.084-3.814 33.153-15.219 41.652-31.503 7.769-14.92 9.772-34.121 5.279-50.611-1.966-7.142-5.841-14.789-10.333-20.36-2.827-3.478-7.133-7.535-10.802-10.134-8.63-6.113-18.776-9.759-31.019-11.143-3.164-.355-10.539-.504-13.759-.28Zm11.288 7.385c1.741.318 5.485 1.234 6.309 1.57.412.15.337.187-.506.187l-.992.019v108.195l-1.535.243c-.861.131-3.126.281-5.054.318l-3.52.094V250.791l1.797.15c.993.075 2.565.28 3.501.43Zm-9.454 54.817-.056 55.304-.561-.056c-1.573-.169-5.541-1.103-7.807-1.851l-2.583-.842V252.418l.711-.187c2.434-.636 6.777-1.271 8.986-1.309l1.348-.018-.038 55.284Zm-15.2 50.48c-.038.038-.805-.355-1.722-.897-14.733-8.488-24.411-25.633-26.077-46.161-.88-10.956.018-20.117 2.826-28.792 2.322-7.18 5.804-12.957 10.708-17.874 3.8-3.777 7.881-6.544 12.561-8.507l1.685-.71.056 51.433c.019 28.287 0 51.471-.037 51.508Zm35.231-102.137c7.394 3.159 14.47 9.123 19.356 16.284 5.373 7.927 8.443 16.696 9.828 28.231.412 3.459.468 14.939.094 18.416-.992 9.087-2.602 15.107-5.728 21.594-4.849 10.022-12.917 17.163-23.288 20.641-.955.318-1.778.58-1.835.58-.037 0-.074-23.932-.074-53.191 0-29.26.037-53.191.074-53.191.038 0 .749.28 1.573.636ZM558.867 244.061c-.637.28-1.105 1.084-1.404 2.486-.281 1.253-.337 10.975-.431 61.193-.056 29.372-.15 44.385-.281 45.899-.43 4.581-1.104 6.918-2.359 8.133-.842.823-3.051 1.44-5.971 1.702a75.625 75.625 0 0 0-2.696.28c-.73.15-1.161.748-1.161 1.645 0 .692.094.898.562 1.29.842.73 1.984.786 9.734.487 8.518-.318 7.694-.318 16.249 0 11.045.411 12.206.224 12.206-1.851 0-1.328-.524-1.608-3.463-1.777-4.306-.243-6.889-.841-8.125-1.888-1.029-.897-1.591-1.795-2.171-3.496-1.049-3.141-1.311-6.132-1.666-18.921a8399.356 8399.356 0 0 1-.674-24.211c-.094-3.758-.225-8.264-.281-10.003-.038-1.757-.131-5.029-.187-7.291-.057-2.263-.131-5.217-.188-6.544-.187-5.31-.505-18.921-.449-19.369.075-.412 1.03.579 7.413 7.665 28.698 31.877 51.967 56.594 73.514 78.076 8.424 8.413 10.614 10.376 11.887 10.769 1.572.467 2.303-.299 2.621-2.73.243-2 .374-17.63.486-65.53.075-23.539.188-40.852.3-42.198.487-6.132 1.966-7.59 8.106-8.095 1.366-.112 1.965-.243 2.34-.524 1.011-.747.992-1.963-.038-2.729-.524-.393-.674-.393-6.364-.318-9.136.131-14.321.131-21.285-.056-6.889-.168-7.713-.112-8.555.692-.618.56-.599 1.776.037 2.374.412.374.712.449 3.127.598 5.353.337 7.731.972 9.06 2.449 1.928 2.132 2.396 5.105 2.602 16.584.056 3.347.131 7.329.187 8.881.056 1.533.131 5.328.187 8.413.057 3.085.132 7.198.188 9.161.112 4.151.224 9.348.468 21.501a2446.3 2446.3 0 0 0 .28 12.713c.057 2.15.132 6.151.188 8.881l.112 4.955-1.273-1.309c-.693-.729-6.589-7.123-13.067-14.209-13.459-14.733-15.668-17.126-26.114-28.325-18.252-19.556-38.601-41.506-46.407-50.013-3.444-3.758-4.979-5.235-5.784-5.534-.562-.224-.768-.205-1.46.094ZM816.473 244.005c-15.295 1.346-25.871 9.666-28.548 22.491-1.011 4.843-.843 10.919.468 15.78 1.741 6.525 5.896 12.826 12.935 19.668 3.014 2.936 4.175 3.927 9.529 8.32 12.729 10.451 16.866 14.639 19.787 20.043 2.751 5.122 3.407 12.582 1.553 17.985-2.527 7.423-8.63 12.34-16.829 13.611-2.621.393-7.881.243-10.502-.318-7.282-1.533-12.018-4.842-14.601-10.189-1.461-2.973-2.153-6.245-2.153-10.04 0-1.907-.375-2.674-1.367-2.86-.936-.187-1.703.28-2.096 1.252-.562 1.402-1.311 13.779-1.18 19.388.094 4.618.412 5.067 4.53 6.824 10.128 4.319 24.655 4.824 35.306 1.197 2.528-.86 6.459-2.748 8.368-4.02 8.106-5.403 13.572-15.069 14.265-25.146.168-2.599-.038-6.75-.449-9.236-.955-5.59-3.613-11.181-7.9-16.528-3.033-3.814-8.836-9.273-15.032-14.209-8.63-6.861-10.97-8.862-15.164-13.069-4.755-4.767-6.608-7.497-7.712-11.329-.393-1.347-.431-1.87-.412-5.142 0-3.403.037-3.758.505-5.291 1.835-6.001 6.047-9.965 12.393-11.666 1.76-.468 2.115-.505 6.084-.505 4.549 0 6.309.205 9.304 1.103 5.204 1.589 8.817 4.562 10.052 8.264.562 1.701 1.142 4.206 1.33 5.665.28 2.355.823 3.178 2.059 3.178.805 0 1.535-.823 1.685-1.926.056-.43.187-3.907.28-7.703.094-3.814.262-7.964.375-9.236.318-3.683.187-3.907-2.565-4.169-1.011-.093-3.519-.486-5.578-.897-2.06-.393-4.381-.804-5.148-.916-4.1-.561-9.604-.711-13.572-.374ZM755.708 245.22c-2.734 1.14-5.691 1.253-31.076 1.122-12.093-.056-24.167-.169-26.844-.225-3.332-.074-5.073-.037-5.56.094-1.385.411-1.928 2-1.011 2.916.487.487.974.58 4.006.748 1.049.056 2.565.281 3.351.486 3.613.917 4.961 2.618 5.523 6.918.355 2.804.355 88.602 0 93.463-.412 5.552-1.142 9.179-2.172 10.694-.842 1.271-1.872 1.645-5.316 2.019-2.397.262-2.603.318-3.033.748-.262.262-.374.635-.374 1.196 0 1.16.673 1.72 2.302 1.889 1.105.131 12.131-.169 15.014-.374.73-.056 4.137.018 7.581.168 10.652.486 20.873.711 29.859.636 8.517-.056 8.629-.056 9.547-.486 1.198-.543 1.535-.86 2.096-1.963.674-1.347 1.124-3.31 1.741-7.61 1.142-8.002 1.367-11.049.861-12.227-.542-1.309-2.452-1.215-3.013.149-.15.356-.487 1.664-.749 2.88-.861 4.094-1.91 6.338-3.688 7.983-1.797 1.664-3.669 2.43-7.488 3.029-1.779.28-3.332.336-9.978.336-6.87 0-8.106-.037-9.734-.355-3.988-.729-5.841-1.87-6.927-4.263-1.31-2.86-1.441-6.057-1.291-29.876.075-10.339.168-18.846.243-18.902.15-.131 12.262.131 17.653.392 7.095.337 9.416.898 11.157 2.674 1.292 1.327 2.078 3.739 2.097 6.394 0 1.683.262 2.599.88 3.085.692.542 1.478.486 2.115-.15.636-.635.655-.804.936-6.3.281-5.404.636-9.124 1.217-12.527.599-3.496.599-4.225.056-4.842-.243-.262-.562-.486-.711-.505-.899-.093-1.236.094-2.584 1.44-1.647 1.664-2.321 2.019-4.736 2.412-2.172.355-11.157.635-21.079.654h-7.169v-45.432h2.489c6.721.019 18.795.393 20.723.654 3.688.524 6.421 1.421 7.769 2.58 1.311 1.104 2.059 3.254 2.321 6.694.188 2.374.412 3.066 1.161 3.459.674.336 1.105.336 1.629-.038 1.029-.71 1.235-1.739 1.628-7.927.337-5.515.337-5.497 1.067-9.255.637-3.215.618-4.113-.056-4.786-.449-.449-1.123-.43-2.433.131ZM165.728 246.23c-1.292.411-1.778 1.925-.917 2.86.486.524.898.617 4.006.785 2.096.113 4.249.599 5.447 1.197 2.415 1.234 3.239 3.085 3.595 8.151.131 1.851.205 16.434.205 43.282 0 46.423-.074 50.162-1.254 55.36-.674 3.029-1.441 4.3-2.958 4.936-.786.317-3.912.841-5.129.841-1.628 0-2.508 1.627-1.554 2.861.712.897 1.535.953 9.716.673 8.986-.318 7.975-.318 19.207 0 10.296.299 10.932.243 11.793-.748.637-.767.618-1.552-.056-2.206-.486-.487-.655-.524-2.658-.655-2.696-.168-6.252-.598-7.132-.86-1.61-.467-2.921-1.888-3.52-3.833-.468-1.495-.879-4.618-1.16-8.787-.131-1.926-.244-11.722-.3-24.735l-.093-21.538h67.654l-.094 22.379c-.075 22.436-.168 25.334-.805 29.597-.917 6.151-1.816 7.16-6.777 7.665-1.104.112-2.19.243-2.414.299-.712.131-1.18.804-1.18 1.683 0 1.066.712 1.682 2.153 1.851.562.075 4.249.018 8.181-.112 8.704-.318 7.731-.318 18.963 0 10.296.299 10.933.243 11.794-.748.58-.711.599-1.496.037-2.15-.412-.486-.543-.505-3.519-.748-5.766-.468-7.095-.785-8.368-2.001-1.591-1.514-2.097-3.608-2.696-10.974-.299-3.833-.449-83.909-.168-89.742.299-5.927.73-7.647 2.265-9.143.955-.935 2.452-1.439 5.036-1.72 2.321-.243 3.163-.523 3.631-1.14.337-.468.356-.599.15-1.272-.187-.673-.356-.841-1.105-1.159-.842-.374-1.029-.392-6.87-.224-7.581.205-13.665.205-22.651 0-5.485-.131-7.282-.112-7.825.056-1.778.598-1.966 2.842-.262 3.347.318.112 1.535.243 2.696.299 3.575.168 6.57 1.121 7.656 2.411 1.984 2.356 2.134 4.301 2.134 27.278v16.79h-67.616l.093-18.379c.113-21.332.187-22.566 1.479-25.034 1.123-2.113 2.228-2.562 8.143-3.253 1.086-.131 1.816-.991 1.666-1.907-.056-.356-.243-.804-.411-.991-.637-.711-1.554-.785-7.844-.617-7.32.205-12.917.205-22.464.037-4.736-.093-7.507-.075-7.9.038ZM304.948 246.211c-1.254.411-1.872 1.383-1.497 2.356.318.86.992 1.084 3.538 1.252 5.635.355 8.237 1.702 9.191 4.768.843 2.711.843 2.991.843 48.292 0 44.235-.038 47.358-.768 52.537-.505 3.664-1.291 5.926-2.358 6.842-.749.599-2.078.973-4.531 1.216-2.564.261-3.07.43-3.425 1.215-.337.692-.225 1.402.318 1.944.767.767 1.516.823 9.547.543 4.175-.15 8.387-.243 9.36-.206.973.019 4.474.131 7.769.224 7.825.243 10.97.243 11.981-.018 1.647-.412 2.283-1.795 1.347-2.898-.411-.486-.561-.505-3.425-.748-6.384-.524-7.432-.804-8.761-2.337-2.153-2.524-2.64-8.414-2.715-32.85l-.018-12.003 2.19.019c1.217 0 5.878.075 10.352.15l8.124.149.768.842c.412.467 3.182 4.206 6.178 8.301 5.335 7.347 11.999 16.284 16.941 22.697 7.395 9.591 11.438 13.555 16.436 16.06 3.164 1.589 6.103 2.3 11.083 2.655 3.669.262 19.393.15 20.067-.15 1.685-.747 1.704-2.617.038-3.234-.262-.112-.974-.187-1.573-.187-1.553 0-4.698-.337-6.458-.673-5.99-1.197-11.644-4.618-17.41-10.563-5.017-5.161-12.954-14.733-24.429-29.428a1908.645 1908.645 0 0 0-6.271-8.04c-1.049-1.346-1.966-2.542-2.041-2.673-.094-.169.711-1.141 2.546-2.992 9.809-10.021 14.676-19.07 15.893-29.577.337-2.973.131-7.815-.449-10.283-1.048-4.45-3.239-8.638-6.496-12.47-4.586-5.385-12.261-8.975-21.902-10.227-4.53-.599-8.424-.729-16.193-.561-9.173.205-17.073.205-26.302.037-3.856-.075-7.226-.075-7.488.019Zm40.417 6.562c9.21.823 15.893 5.142 19.955 12.938 2.528 4.842 3.838 10.863 3.838 17.743 0 12.545-4.455 22.024-11.925 25.296-2.508 1.084-4.156 1.327-9.416 1.327-6.103 0-10.483-.505-13.984-1.608-2.808-.897-2.489 2.749-2.489-27.838 0-24.792.018-26.343.337-26.717.767-.954 8.48-1.589 13.684-1.141ZM850.824 247.912v.748h3.931V258.943h1.685V248.66h3.931v-1.496h-9.547v.748ZM861.813 247.295c-.075.056-.131 2.711-.131 5.89v5.758h1.741l-.094-4.768c-.056-2.617-.094-4.767-.056-4.767.019 0 .786 2.15 1.685 4.767l1.628 4.768h1.61l1.517-4.543c.842-2.487 1.591-4.637 1.684-4.768.075-.149.113 1.889.075 4.525l-.093 4.786h1.722l-.038-5.852-.056-5.833h-2.246l-1.629 4.767c-.88 2.618-1.647 4.824-1.685 4.899-.037.093-.805-2.075-1.741-4.805l-1.684-4.955h-1.049c-.58 0-1.104.056-1.16.131Z"/></svg>