<svg xmlns="http://www.w3.org/2000/svg" width="124" height="128" fill="none"><g fill="#000" clip-path="url(#a)"><path d="M79.497.473c-.96.364-1.142.445-1.28.579l-.163.157-1.146.243c-1.2.255-1.817.344-2.736.389l-.548.028-1.098-.473c-.601-.26-1.199-.534-1.325-.611-.21-.126-.256-.138-.552-.138-.39 0-.903.158-1.557.482-.386.194-.471.258-.918.7l-.492.48-1.878-.044-1.878-.044-.471-.283c-.951-.57-1.98-.882-3.215-.967-.378-.025-.735-.073-.833-.11a1.616 1.616 0 0 0-.435-.064c-.22-.008-.309.012-.528.117-.427.206-.634.441-.972 1.105-.231.449-.308.57-.361.554-.67-.19-1.797-.223-2.345-.069-.313.089-.338.105-.691.453l-.37.36-1.805-.162c-1.3-.117-1.894-.19-2.113-.25-.35-.098-1.012-.118-1.28-.04-.118.031-1.407.69-1.471.752-.005.004.02.214.052.469.029.255.057.477.057.493 0 .013.39.154.866.312l.861.287h.915l.008.959.012.955.46-.595.463-.599-.126-.332a4.073 4.073 0 0 1-.126-.36c0-.016.122-.028.276-.028h.273l.26.72c.142.393.272.728.284.745.012.016.183-.328.374-.77l.35-.796h.597l.11.437c.06.243.118.445.126.453.008.008.093-.218.19-.506.094-.291.184-.526.192-.526.012 0 .317-.044.678-.1.427-.061 1.09-.122 1.886-.163l1.228-.06.764.348c.418.194.784.364.809.384.154.121.207 1.319.08 1.86l-.068.312-.525.369a8.848 8.848 0 0 1-.548.368c-.012 0-.337-.263-.724-.583-.386-.32-.703-.578-.71-.57-.005.004.137.42.316.926.179.502.325.93.325.947 0 .028-.58.372-.63.372-.012 0-.02-.121-.02-.275v-.271l-.707-.704-.707-.704.3.987c.163.542.301 1.007.301 1.028 0 .04-.483.327-.504.299-.069-.093-1.5-1.736-1.512-1.736-.008 0-.016.32-.016.708v.708h.65v.712l-.305.15c-.17.081-.312.15-.317.15-.008 0-.247-.482-.536-1.072-.288-.59-.528-1.064-.537-1.056-.008.004.017.582.05 1.278l.064 1.266-.11.114c-.06.065-.125.105-.142.093a9.819 9.819 0 0 1-.48-.563l-.45-.546-.118-.513-.114-.518-.028.263c-.061.59-.147 1.832-.13 1.852.012.009.207.07.434.134.228.06.419.121.427.13.008.008-.248.133-.573.283l-.585.267-.24-.251c-.13-.138-.455-.482-.715-.769a11.541 11.541 0 0 0-.496-.514c-.008 0 .073.15.183.332.105.186.337.579.512.878l.317.542-.085.267a2.39 2.39 0 0 0 .08 1.687c.115.271.139.303.277.344.114.036.175.032.24-.004.17-.089.207-.267.207-.991v-.668l.358.275c.642.506 1.394.862 1.813.854.089 0 .24-.012.329-.028.138-.025.166-.049.22-.182.044-.126.048-.17.007-.247-.09-.162-.426-.376-.731-.47l-.289-.084v-.195c0-.295.256-.615.614-.764.622-.267 1.56-.247 3.666.077.987.15 1.154.19 2.918.683 1.028.288 1.91.534 1.959.546.053.017-.061-.12-.297-.36l-.386-.384-.906-.125-.907-.126-1.203-.776-1.203-.777.935-.037c.923-.032.947-.032 1.866.094.772.109 1.06.165 1.699.352.707.206.82.254 1.381.566.338.19.586.32.553.287-.032-.032-.935-.752-2.004-1.606-1.064-.854-1.934-1.553-1.926-1.562.008-.008.614.025 1.35.07l1.34.08.285.275c.37.36.756.64 1.492 1.072.752.441 1.162.599 1.82.704.573.093 1.057.146 1.057.117 0-.012-.231-.226-.516-.473-.809-.7-1.687-1.667-2.08-2.277-.4-.623-.55-.91-.627-1.214l-.06-.227.324.251 2.305 1.772 1.975 1.517.012 1.477.008 1.476.508.502.508.506v.833l-.792.967-.793.967v1.201l-.833.482-.833.485V20.3l-.874.692-.874.692h-2.641v1.804l-.293.287-.297.292-1.605-.4c-.882-.22-1.61-.397-1.614-.39-.004.005.009.118.029.252.073.428.049.772-.081 1.238-.175.614-.277.82-.598 1.157-.492.517-1.073.732-1.861.683-.456-.028-.642-.093-1-.352-.154-.113-.28-.198-.28-.186 0 .008-.045.239-.102.514-.236 1.149-.504 1.93-.894 2.625-.175.304-.317.486-.683.854-.394.396-.524.502-.845.676-.305.166-1.077.493-1.159.493-.008 0-.016-.764-.016-1.703v-1.7l.419.223.414.223.02.352.02.356.46.336.455.335V26.83l-.304-.708-.301-.704-.106-1.995a77.38 77.38 0 0 1-.085-2.01c.008-.008.077.064.154.157.59.725 1.26 2.124 1.601 3.35.078.28.163.57.187.647l.045.138.179-.502c.264-.744.337-1.1.337-1.719 0-1.675-.597-3.26-1.84-4.887l-.367-.473h-.74l-1.767-1.76c-.972-.967-1.756-1.76-1.736-1.76.017 0 .212-.028.435-.06l.407-.061 1.085.704a35.6 35.6 0 0 0 1.101.692c.029-.02-.268-.644-.451-.951-.264-.445-.43-.652-.78-.975-.8-.74-1.37-1.056-2.423-1.351-.292-.081-.447-.101-.857-.101h-.5l-.569-.567-.569-.566h1.748l-.529-.53a6.31 6.31 0 0 0-1.122-.927l-.597-.4-.861.222-.866.227-1.09-.259c-.6-.138-1.093-.263-1.093-.275 0-.012.468-.295 1.037-.627a22.59 22.59 0 0 0 1.02-.615 24.328 24.328 0 0 0-1.122-.194l-1.11-.178-.65.449-.65.449-.317-.158c-.179-.085-.321-.166-.321-.178 0-.012.13-.15.288-.303.988-.971 2.54-2.816 3.069-3.653.325-.51.585-1.36.585-1.882l-.004-.25-.17.323c-.322.607-1.061 1.57-1.598 2.084-.82.78-2.15 1.492-4.52 2.41l-1.032.397-.101.207c-.325.643-.988 1.424-1.642 1.933-1.06.826-2.743 1.776-5.767 3.253-.927.453-1.687.83-1.691.833-.004.004.045.453.114 1 .081.683.105.995.077 1.003-.207.069-.886.457-1.284.736-.622.433-1.614 1.274-2.215 1.877l-.468.47H19.79l-.537.46c-.934.802-1.337 1.271-1.926 2.246l-.252.42.162.227c.094.126.232.324.313.437l.15.215h1.192l.365.493c.407.55 1.04 1.198 1.398 1.42.208.134.81.4.838.372.004-.004-.265-.639-.602-1.408a77.707 77.707 0 0 1-.61-1.415c0-.013.114-.09.257-.174l.337-.207c.077-.048.098-.036.26.198.098.142.305.437.463.656l.285.404.093-.279c.159-.47.11-1.23-.101-1.606l-.11-.194.346-.344c.186-.19.353-.344.37-.344.011 0 .048.134.072.291.102.567.553 1.501.878 1.813l.191.182-.024-.202a89.74 89.74 0 0 1-.106-1.133 59.182 59.182 0 0 0-.105-1.117l-.02-.186.166-.028c.146-.024.187-.012.35.117.24.182.381.409.524.834.06.186.122.352.138.368.016.016.167-.263.333-.627l.31-.656.145-.012a.663.663 0 0 0 .15-.024c0-.008.037-.283.082-.61.045-.329.081-.604.081-.612 0-.008.195-.016.435-.016h.435l.212.206.21.207-.154-.729-.15-.728.532-.247.533-.246h1.158l-.475.655c-.968 1.347-2.045 2.553-3.573 3.997-.293.28-1.166 1.194-1.943 2.03l-1.41 1.53h-2.56l-.712-.392-.71-.393-.566-.922-.569-.922-.15-1.267c-.081-.692-.159-1.274-.175-1.294-.012-.017-.19.493-.394 1.128l-.37 1.157.813 1.234c.443.68.8 1.242.792 1.25-.008.009-.54-.036-1.186-.105a32.502 32.502 0 0 0-1.191-.105c-.008.008.097.214.232.453.276.494.881 1.238 1.198 1.477.28.21.886.429 1.407.51.857.125 1.837-.025 2.82-.441l.492-.207.874-.861c.8-.785.922-.89 1.467-1.242 1.199-.773 1.861-1.327 2.244-1.878.138-.206.48-.501 1.837-1.614.918-.748 1.755-1.436 1.865-1.525l.195-.166-.024.223c-.078.578-.447 1.52-.907 2.293-.467.793-1.219 1.91-1.284 1.91-.024 0-.488-.028-1.02-.06-.537-.033-.98-.053-.988-.05-.008.009.252.175.577.369l.594.352-.273.514c-.15.283-.284.526-.296.546-.016.016-.74-.016-1.61-.073-.87-.053-1.589-.093-1.597-.085-.028.032.289.494.476.684.11.117.313.259.491.352.44.218.805.283 1.634.283.537 0 .687.012.67.048-.007.029-.097.324-.19.66-.094.332-.183.63-.191.655-.016.04.085.053.43.053h.452l.008-.696.012-.696.488.704c.268.384.5.716.512.736.016.029 1.183-.38 1.256-.44.008-.009-.2-.231-.46-.49l-.48-.477.066-.907c.037-.497.069-.91.073-.914.004-.004 1.398-.647 3.097-1.432 1.699-.785 3.093-1.432 3.101-1.436.008-.008-.13-.057-.305-.118-.577-.19-1.812-.242-2.979-.125-.325.032-.605.057-.63.057-.02 0 .398-.17.935-.377 1.971-.756 3.381-1.424 4.202-1.982l.419-.287-.601-.032c-1.606-.081-2.305-.21-3.122-.567l-.32-.141.219-.045c1.71-.336 4.365-.667 6.291-.789.52-.032.955-.064.963-.077.008-.008-.829-.542-1.857-1.185-1.443-.902-1.853-1.173-1.796-1.197.04-.017.768-.215 1.617-.437.85-.223 1.573-.417 1.61-.43.052-.011.402.401 1.34 1.587.704.886 1.285 1.622 1.301 1.638.013.02.366.073.789.117.422.045.78.098.796.114.012.016.053.17.09.344.138.639.565 1.274 1.26 1.873l.333.283.358 1.213c.357 1.202.361 1.21.288 1.331-.378.656-.483.943-.516 1.416l-.008.162-.256-.356a8.958 8.958 0 0 0-.264-.352c-.07.008-1.098.28-1.11.296-.008.008.354.295.813.639l.825.623.126.364c.183.554.228.93.2 1.8l-.021.757-.394.918c-.415.975-.512 1.33-.57 2.023l-.028.364-.642 1.092c-.813 1.392-.854 1.477-.854 1.7 0 .242.127.55.342.828.093.126.288.41.43.632.139.222.265.412.273.42.008.013.118-.08.24-.202.146-.142.22-.19.207-.137a9.052 9.052 0 0 0-.09.445c-.032.198-.08.457-.105.574l-.04.21-.696-.57-.695-.57.025.178c.077.554.118 1.456.097 2.127-.024.854-.073 1.117-.35 1.841l-.162.42.102.418c.053.23.097.424.097.432 0 .077-.963-.242-1.52-.51-.963-.46-.898-.408-1.447-1.253-.268-.409-.48-.749-.475-.753.004-.004.63.11 1.39.25.756.142 1.386.252 1.39.244.02-.02-.48-1.78-.512-1.817-.02-.016-1.061-.21-2.32-.433a111.01 111.01 0 0 1-2.297-.412 68.698 68.698 0 0 1-.833-1.627c0-.012.642-.024 1.422-.024.784 0 1.423-.008 1.423-.02 0-.02-1.045-1.84-1.073-1.87-.004-.007-.956.09-2.11.215l-2.097.223-.874-.595c-.483-.328-.87-.603-.865-.61.008-.009.699-.086 1.536-.175.837-.089 1.601-.17 1.699-.186l.179-.024-.504-.502-.504-.501h-2.56l-.854.404-.858.409-1.337-.482-1.337-.485 1.134-.364c.626-.203 1.638-.526 2.243-.72.61-.194 1.102-.36 1.094-.368-.009-.009-1.049-.077-2.317-.154l-2.305-.142-1.052.87-1.053.87-1.678.137c-.923.077-1.679.138-1.687.134-.004-.004.87-.4 1.943-.878 1.069-.477 1.947-.878 1.947-.89 0-.012-.187-.206-.415-.433l-.419-.412-1.434.222-1.435.222-.374.288c-.878.675-1.374 1.278-1.715 2.08l-.187.44-.862.332a77.61 77.61 0 0 0-.93.36c-.07.024-.074-.033-.074-.817v-.846l1.549-.91 1.544-.91-1.219-.012-1.223-.009-2.642 2.387-2.642 2.387h-.613l-.248.385c-.134.214-.252.38-.26.372a13.201 13.201 0 0 1-.078-.882l-.06-.866.914-.91c.504-.502.914-.93.914-.95a7.695 7.695 0 0 0-.32-.604l-.318-.562.683-.821.687-.822.101-1.193.106-1.197-.744-1.23a31.94 31.94 0 0 0-.752-1.222c-.008.004-.056.724-.113 1.594l-.106 1.586-.455.954-.455.951-.264.186c-.578.405-1.078.98-1.553 1.793-.614 1.051-.841 1.626-1.435 3.673l-.309 1.064-.508.647c-.878 1.117-1.512 2.007-1.963 2.743-.455.744-1.483 2.613-1.601 2.905-.081.21-.163.979-.13 1.246.049.372.223.966.39 1.318l.167.352-.293.538c-.512.939-.927 2.343-1.097 3.73-.045.369-.082.676-.082.688 0 .008-.199.15-.443.316l-.443.3-.028.537c-.065 1.185.077 2.217.406 2.99.102.238.191.44.2.445.008.008.32-.033.699-.09l.687-.096.532.526.528.526.618-.17c.341-.097.618-.182.618-.199 0-.016-.496-.376-1.098-.809-.605-.429-1.089-.789-1.077-.8.013-.013.18-.094.374-.175l.35-.145.471.218.472.219-.679-.68-.675-.68.09-.23a1.89 1.89 0 0 1 .11-.251c.012-.012.349.04.747.117.399.077.732.134.736.13.008-.009-.297-.32-.67-.692l-.687-.684.186-.307a4.88 4.88 0 0 1 .228-.356c.033-.033.159.036.492.27.248.175.451.308.46.304.007-.008-.155-.255-.367-.55-.207-.291-.374-.546-.37-.558.005-.013.09-.174.196-.36l.19-.336.127.08c.605.365.942.563.955.555.004-.008-.167-.372-.378-.813-.216-.441-.382-.805-.374-.813.004-.008.183.012.394.044.211.033.398.06.419.06.016 0 .028-.173.028-.383v-.385h.163c.09 0 .162.004.162.008 0 .008-.093 1.412-.203 3.128-.11 1.71-.203 3.119-.203 3.123 0 .008.183.012.402.012h.403l.024-.437c.016-.239.065-1.25.11-2.245l.08-1.817.168-.247c.199-.299.402-.49.621-.59l.163-.073.236.182.24.182-.46.457-.463.461H9.266v.364c0 .344-.004.364-.089.385-.053.012-.3.056-.557.1a5.213 5.213 0 0 0-.475.094c-.008.008.288.15.658.316.37.161.679.307.687.32.008.011-.362.21-.817.444-.455.235-.829.437-.829.45 0 .011.232.088.52.173l.915.271.394.121v.789l-.537.174a6.913 6.913 0 0 0-.573.203c-.016.016.313.125.732.242.423.118.788.231.82.247.037.02-.007.053-.141.105-.366.138-1.049.656-1.203.91-.074.118-.078.118-.468.118l-.398.004.183.162c.22.194.544.368.87.46.264.078.475.066 1.032-.064.65-.15 1.178-.077 1.662.235.203.125.228.133.602.133.735 0 1.394-.267 2.247-.902l.386-.291-1.207-.012-1.207-.008.431-.627c.24-.344.423-.627.415-.627-.135 0-1.232-.26-1.256-.296-.017-.024-.2-.323-.41-.655l-.383-.607.13-.303c.073-.166.228-.47.346-.668.796-1.343 1.56-2.318 2.922-3.738.414-.433.727-.777.695-.764-.033.008-.59.198-1.232.416l-1.174.397-.65.805c-.358.44-.659.8-.667.8-.012 0 .435-.679 2.19-3.325l.879-1.327-.273-.157-.272-.162-1.313 1.302-1.309 1.303v-1.74l2.939-1.71 2.934-1.712.293-.473c.163-.26.289-.474.28-.482-.008-.008-.808.26-1.784.59l-1.768.608-1.638.065c-.898.032-1.642.056-1.65.048-.008-.008.28-.19.642-.409l.655-.388h2.19l1.309-1.104 1.313-1.109.89.417.894.412.012-.29.012-.292 1.049-.47 1.053-.473 1.105-.121 1.102-.125 1.06.979 1.061.979.862-.433.865-.43.41.567.411.563v.627c0 .615 0 .627.094.647.049.012.447.101.882.202a21.27 21.27 0 0 1 1.32.344c.627.198 1.46.623 1.846.939.227.186.28.255.398.53.215.505.183.724-.195 1.355-.13.222-.341.485-.56.704l-.35.356h2.284l.455.716.46.716-.107.607c-.06.336-.117.66-.13.72-.024.113-.02.113.183.113h.208v.534l-.005.538-.199.324-.199.323.382.013.382.012.878.946.874.947v1.505l-.46.554a40.33 40.33 0 0 0-.893 1.129l-.44.578h1.512l1.065.919 1.07.922.15.405c.272.72.406 1.76.317 2.443a2.914 2.914 0 0 1-.057.352 2.628 2.628 0 0 1-.374-.04 3.755 3.755 0 0 0-.374-.049c-.008.004.122.19.28.413.39.534.659.97.821 1.327.39.85.769 2.37.817 3.293l.029.493.179.105c.573.336.877 1.19 1.072 3.039l.086.8.154.162c.321.336.549.814.736 1.534l.102.4.215.073c.406.138.91.566 1.309 1.108.158.219.373.441.658.676.557.461.797.724.967 1.064.13.259.143.308.143.647-.005.53 0 .53-.468.348-.443-.174-1.365-.66-2-1.06-.573-.36-1.934-1.42-2.462-1.921-.687-.644-2.333-2.436-3.142-3.415-1.162-1.408-2.804-3.746-4-5.696l-.426-.7-.264-3.83a393.448 393.448 0 0 0-.289-3.994c-.048-.32-.268-.526-.682-.643l-.236-.069.028-.372c.057-.748-.199-1.808-.54-2.241-.134-.17-.517-.445-.85-.615-.427-.214-.695-.247-1.963-.247h-1.13l-.142.425-.146.425h1.162l.167.198c.406.481.605 1.056.557 1.626l-.029.308-.236.234-.235.231-.09-.275c-.195-.59-.483-.995-.8-1.133-.252-.11-.622-.052-.919.134-.179.113-.15.13-.362-.227-.203-.348-.776-.858-1.138-1.011-.475-.203-1.24-.227-2.097-.061-.471.089-.613.134-.983.32-.659.327-1.004.74-1.134 1.35a.978.978 0 0 0-.033.236c.012.008.39-.033.846-.086l.829-.105.58.579c.318.315.578.586.578.599 0 .012-.179.036-.398.048-.756.045-1.297.328-1.549.817a3.066 3.066 0 0 0-.166.482c-.045.178-.09.327-.094.336a2.284 2.284 0 0 1-.317-.093c-.264-.094-.366-.106-.85-.11l-.548-.004-.284.146c-.578.291-.846.554-1.354 1.31a4.9 4.9 0 0 0-.345.688c-.098.243-.362.76-.586 1.15-.223.388-.402.711-.398.72.008.007.155-.025.333-.074.65-.181 1.102-.424 1.626-.877l.248-.215h1.377l.484.615c.667.846 1.175 1.295 2.211 1.95.557.352 1.049.623 1.659.91l.865.409.525.481c.82.749 1.442 1.546 1.747 2.234.407.906.59 1.504.716 2.305.052.34.056.591.036 1.311l-.028.89-.2.328c-.394.651-.569 1.19-.625 1.938-.061.768.32 1.614 1.069 2.378l.272.272-.077.137c-.106.194-.244.316-.573.502-.378.21-1.045.424-1.785.574-.333.065-.613.13-.621.138-.009.008.166.141.386.299.743.53 1.654.858 2.373.858.532 0 .87-.11 1.362-.437.414-.28.589-.478.991-1.141l.252-.417.216.223.215.222.118-.125c.2-.21.358-.506.508-.975.236-.72.3-1.44.236-2.646-.029-.453-.04-.83-.033-.837.033-.033.947-.21.968-.186.016.016.426.59.914 1.282 1.24 1.756 2.093 2.804 3.585 4.402 1.906 2.038 4.076 3.766 6.226 4.951 2.235 1.234 3.247 1.663 5.284 2.242l1.272.364.272.08-.004.98c0 .65-.02 1.023-.053 1.112-.024.073-.146.263-.268.417-.297.38-.862.724-1.549.946l-.471.154.073.328c.04.182.077.344.077.364 0 .044.732-.004 1.191-.081.654-.11 1.524-.477 1.991-.841.517-.405.842-.781 1.297-1.51.122-.194.3-.396.565-.63.675-.6 1.378-1.38 1.74-1.93.503-.765.877-1.598 1.028-2.302l.085-.38 1.601-1.756 1.598-1.752h.841l.024 1.586c.041 2.763.334 4.713 1.012 6.744.512 1.541 1.654 3.56 2.5 4.417.24.243.268.296.32.526.115.53.066 1.02-.154 1.578l-.117.303-.496.267c-.7.377-1.317.636-2.492 1.044-1.707.599-2.63.801-4.893 1.076-.841.106-3.87.106-4.796.004-1.808-.202-2.812-.368-4.381-.732l-1.309-.307-.5-.332c-1.528-1.02-2.089-1.5-3.426-2.965-.483-.53-1.292-1.768-1.865-2.86l-.2-.385-.386-.238a5.715 5.715 0 0 1-.662-.482c-.423-.364-1.101-1.145-1.378-1.578l-.248-.384h-2.878l-.706.938c-.386.518-.7.947-.7.951.009.008 2.179.134 2.297.134.037 0 .817.946.817.99 0 .013-.138.021-.305.021-.297 0-.317-.008-.524-.158a.997.997 0 0 0-.456-.202c-.345-.065-.528-.004-.89.3l-.203.17-.447.024a4.907 4.907 0 0 0-1.601.368 2.6 2.6 0 0 0-1.17 1.023c-.269.433-.354.664-.423 1.125-.05.316-.065 1.343-.02 1.388.008.008.406-.243.881-.55l.87-.567.451.445.455.445.216-.069c.122-.04.248-.08.28-.093.033-.008-.276.324-.69.74-.745.753-.757.761-1.167.951-.472.223-1.126.696-1.406 1.016-.228.258-.488.861-.553 1.278-.077.51-.057.773.114 1.436.146.558.223.769.532 1.469l.09.202.195-.526c.309-.837.67-1.36 1.089-1.574.093-.048.211-.064.402-.056l.273.012.052.214c.07.267.264.587.431.704.114.081.179.093.516.09.33 0 .427-.017.65-.114.37-.158.777-.4 1.147-.68l.313-.234h3.011l1.7 1.189c1.275.898 1.747 1.25 1.901 1.428.561.64.687 1.096.724 2.642.036 1.569.186 2.273.63 2.929l.207.303v.413c0 .4-.004.425-.167.756-.252.522-.748 1.044-1.378 1.449-.268.174-.475.327-.459.339.057.049.907.199 1.39.243.382.037.537.032.902-.02 1.179-.174 1.695-.55 2.211-1.618.171-.344.301-.692.386-1.012.106-.392.155-.513.26-.627.322-.344.509-.655.659-1.092.106-.303.106-1.643.004-2.096l-.07-.295.224-.72c.236-.76.322-1.214.366-1.897.02-.296.045-.413.077-.4.025.011.65.21 1.39.448 1.142.364 1.553.474 2.744.728 2.597.563 4.527.749 7.25.7 2.569-.044 4.435-.291 7.255-.959 1.284-.303 1.744-.432 2.926-.829.768-.255 1.402-.465 1.406-.465.02 0 .39.623.5.837.338.672.326 1.643-.024 2.278-.22.396-.484.76-.76 1.044-.236.246-.244.259-.126.234.07-.012.321-.052.565-.089.935-.137 1.642-.477 2.183-1.052.39-.408.597-.813.747-1.472.106-.445.11-.498.09-1.295a13.613 13.613 0 0 0-.065-1.08l-.045-.25.24-.6c.382-.954.455-1.48.353-2.52-.069-.68-.146-1.027-.353-1.59-.114-.307-.118-.343-.118-1.043 0-1.344.24-2.804.601-3.637.321-.745.456-.935.988-1.384.695-.586.984-.716 2.02-.898l.13-.024v1.052h.719l.208.311c.48.745.634 1.145.678 1.772.017.198-.004 1.618-.036 3.151a136.303 136.303 0 0 0-.053 2.8c.008.008.138-.64.293-1.44.154-.801.288-1.449.296-1.436.008.008.061.979.114 2.156l.102 2.144-.285.744c-.544 1.437-.89 2.816-.98 3.912l-.044.543-.878 1.699-.874 1.699-2.304 2.496-2.3 2.492-2.724 1.379-2.723 1.376-4.653 1.545-4.654 1.542-1.829.121c-1.885.125-4.182.32-5.04.429-.658.081-1.657.315-1.808.421l-.118.084-2.93-.105-2.93-.101-3.82-1.436-3.821-1.44-3.455-1.829-3.454-1.828-.31-.567a28.72 28.72 0 0 0-.312-.574 2.287 2.287 0 0 0-.289.056 5.052 5.052 0 0 1-.752.065c-1.11.008-1.938-.384-2.654-1.258-.199-.243-.256-.283-.463-.348-.626-.198-1.012-.453-1.52-1.003-.48-.522-.772-.919-1.22-1.647l-.381-.623-.02.421-.02.417-.436-.567a11.536 11.536 0 0 1-.422-.57c.004-.004.26.016.573.048.308.037.569.053.58.041.033-.032-.369-.481-.763-.854a13.149 13.149 0 0 0-1.598-1.27l-.442-.303.39-.013c.215-.004.39-.02.39-.032 0-.065-.772-1.011-1.024-1.254a9.975 9.975 0 0 0-1.756-1.315c-.28-.158-.512-.295-.512-.3 0-.007.28.098.622.231 1.146.45 1.308.51 1.325.494.024-.02-.334-.64-.545-.93-.601-.834-1.638-1.793-2.727-2.513l-.598-.396.403-.02.402-.02-1.658-1.433c-.91-.789-1.65-1.436-1.642-1.444.004-.008.467.174 1.024.404.561.231 1.02.417 1.028.41.029-.025-.17-.418-.304-.604-.736-1.015-1.11-1.42-2.26-2.46-.419-.38-.76-.695-.76-.703 0-.016.276.109 1.24.562.447.21.816.38.825.372a5.903 5.903 0 0 0-.216-.481c-.414-.882-1.093-1.72-2.247-2.775-.297-.276-.533-.502-.525-.51.008-.008.31.085.67.202.363.121.66.21.66.202 0-.048-.358-.63-.606-.987-.175-.25-.472-.582-.866-.966-.33-.324-.593-.591-.59-.6.009-.003.379.142.826.328.443.19.817.336.82.328.009-.008-.243-.332-.556-.72l-.573-.704-.642-.17c-.35-.093-.992-.267-1.419-.38-.43-.113-.784-.219-.784-.23 0-.013.223-.154.496-.312l.5-.291.569.562.569.562.304.065c.167.032.443.105.61.162.167.052.642.19 1.057.303 1.74.481 2.45.534 3.593.267l.402-.097-1.012 1.011c-.557.559-.984 1.004-.951.996.032-.013 1.15-.308 2.48-.66 1.328-.348 2.434-.651 2.45-.667.016-.012.093-.352.17-.749.078-.396.147-.724.15-.728.037-.032 2.24-1.117 2.248-1.104.005.008-.199.776-.45 1.71-.253.935-.452 1.704-.444 1.712.009.008.269-.162.578-.38 1.479-1.044 2.418-2.14 3.015-3.512.407-.926.614-2.152.537-3.13a5.804 5.804 0 0 1-.033-.56c.008-.007.179.155.382.36l.37.373.476 1.639c.264.902.487 1.658.503 1.686.013.025.228-.347.48-.833l.455-.878.065-3.802.065-3.807-.105-.583c-.248-1.371-.899-2.868-1.614-3.694a8.966 8.966 0 0 0-2.337-1.905 4.444 4.444 0 0 1-.418-.243c0-.012.556.174 1.24.405.682.23 1.239.417 1.239.409 0-.009-.086-.21-.187-.45-.44-1.023-1.264-1.974-2.504-2.884l-.398-.291-2.528-.008-2.532-.013.244-.145c.536-.328 1.329-.477 2.74-.518l.788-.024-.533-.352-.532-.352-.54-.069c-.749-.097-2.122-.097-2.756 0-1.33.202-2.293.518-3.28 1.072a4.184 4.184 0 0 1-.395.207c-.012 0 .423-.539.972-1.194.703-.841.971-1.19.906-1.173-.053.012-.61.101-1.24.202l-1.15.182-.593.368c-1.207.74-2.101 1.517-2.638 2.282-.11.154-.24.336-.292.396-.134.166-.35.636-.533 1.166-.32.918-.666 1.585-1.154 2.229l-.236.307.082 1.003.085 1.004.382 1.29c.215.708.451 1.444.528 1.63.293.704.752 1.554 1.081 2.003.183.243.338.441.342.433.004-.008-.106-.732-.244-1.61a70.996 70.996 0 0 1-.244-1.61c.004-.008.244.255.529.578.284.324.524.583.532.575.008-.008-.012-.74-.045-1.627a93.59 93.59 0 0 1-.053-1.618 8.69 8.69 0 0 1 .326-.113c.58-.19.947-.631 1.174-1.404l.114-.384v.635c.004.352.02.64.037.64.048 0 .337-.215.418-.308.187-.219.488-.813.618-1.21.154-.461.207-.732.256-1.315l.028-.344.143.38c.162.421.048.316.971.907l.293.19.642-.736.642-.733.012.53.012.534h.805l.33-.424.328-.425.557.004h.557l-.516.263c-.289.141-.52.27-.52.291 0 .057.296.817.32.817.013 0 .383-.097.818-.214l.792-.215.012.377c.004.206.029.376.045.376.187 0 .951.101 1.236.166.41.089.845.295 1.02.477l.122.126h-.882c-.484 0-.882.008-.882.016 0 .012.646 1.165.67 1.19.009.011 2.069.327 2.138.33.033 0 .532.774.516.794-.008.008-.402-.093-.878-.223l-.857-.234.114.145c.06.081.447.57.853 1.089.407.522.736.95.728.958-.009.008-.289-.044-.622-.117-.338-.073-.618-.13-.626-.121-.008.008.2.526.46 1.153s.467 1.145.458 1.153c-.008.008-.252-.029-.54-.085a32.698 32.698 0 0 0-.532-.101c-.009 0-.013.473-.013 1.055 0 .984-.004 1.052-.069 1.032-.04-.012-.19-.049-.337-.085-.146-.036-.297-.073-.333-.085-.07-.02-.074.032-.074.728 0 .413-.004.753-.008.753-.008 0-.305-.081-.662-.178-.358-.101-.655-.174-.667-.166-.008.008-.101.42-.207.918l-.195.902-.004-.436-.004-.437-.594.012-.593.012-.536.922-.533.923-.012-.834-.008-.833-.114.02c-.06.012-.402.06-.756.105a9.523 9.523 0 0 0-.675.101c-.016.008-.134.19-.26.405-.13.21-.252.376-.268.364-.02-.012-.154-.21-.3-.44l-.269-.418-.805-.024c-.48-.012-.922-.048-1.105-.085-.5-.105-.817-.198-.784-.226.016-.017.256-.073.528-.126.276-.048.5-.105.5-.117 0-.012-.143-.162-.313-.332l-.317-.311-.91-.061c-.5-.032-.915-.069-.923-.073-.008-.008.26-.105.593-.214.338-.11.61-.215.61-.235 0-.028-.646-1-.728-1.088-.012-.016-.361-.085-.776-.154a14.77 14.77 0 0 1-.813-.15c-.036-.012.02-.052.15-.105.118-.048.216-.105.216-.125 0-.016-.061-.138-.138-.263-.264-.429-.83-.886-1.662-1.343l-.395-.219.468-.012c.256-.004.467-.02.467-.032 0-.069-.228-.534-.33-.676-.15-.21-.658-.603-1.052-.817l-.296-.162.39-.012c.22-.004.394-.024.394-.04 0-.017-.045-.4-.102-.858l-.101-.83-.7-.695-.698-.696.569.178c.308.101.569.182.577.182.004 0 .008-.267.008-.595v-.598l-.516-.522c-.342-.34-.472-.494-.378-.441.077.044.264.15.418.23l.273.15v-1.14l-.39-.676c-.22-.373-.484-.83-.598-1.02-.11-.186-.175-.32-.146-.3.032.025.235.175.455.337l.398.29.191-.396c.187-.392.191-.4.191-.8 0-.583-.093-.826-.597-1.538l-.398-.566.589-.013.59-.012v-.659c0-.926.158-2.342.385-3.463.053-.255.09-.47.086-.473-.004-.008-.517.307-1.134.695l-1.126.709H1.268l-.02.089c-.012.052-.09.428-.167.841-.321 1.675-.288 3.637.073 4.741.09.275.106.425.147 1.356.024.574.089 1.444.146 1.933.154 1.396.313 2.104.727 3.257.147.409.26.744.256.748a36.83 36.83 0 0 1-1.21-.865l-1.2-.878-.012.74-.008.74.943 1.72.947 1.72h.244c.557.003 1.296.29 1.682.654.2.187.289.32.488.716.138.267.248.498.248.51 0 .008-.463.024-1.032.029l-1.037.012.821.833a23.52 23.52 0 0 0 2.98 2.585c1.093.789 1.812 1.173 2.812 1.501.223.073.402.146.394.162-.04.065-.634.077-1.02.02-1.622-.247-3.434-1.55-5.54-3.98-.276-.316-.508-.571-.516-.563-.008.008.033.708.09 1.562l.101 1.549.72 1.582.719 1.578.605.416c.334.227.622.433.643.453.028.029.19 1.307.195 1.538 0 .028-.46-.32-1.02-.769-.561-.453-1.118-.902-1.244-1l-.22-.177.257.485C6.096 89.632 5.9 89.28 6.056 89.33c.459.145 1.19.748 1.621 1.339.256.348.964 1.557.931 1.59-.04.04-.772-.291-1.118-.51-.48-.303-.784-.562-1.548-1.307l-.581-.57 1.223 2.083C7.26 93.1 7.84 94.062 7.877 94.09c.036.029.223.154.41.275.366.24 1.19 1.004 1.654 1.534.289.327 1.134 1.509 1.106 1.541-.008.008-.594-.174-1.297-.409l-1.276-.42 1.292 1.27c1.378 1.355 2.114 1.978 3.11 2.63l.495.323 1.02 1.307c.561.72 1.012 1.315 1.004 1.323-.008.008-.589-.166-1.288-.384l-1.276-.397.565.566c1.256 1.259 3.23 2.861 4.556 3.694l.825.518.914 1.023c.504.567.915 1.036.915 1.048 0 .008-.533.024-1.187.028l-1.183.013 1.35.857 1.345.862H23.033l.32.485.321.486h1.65l.728.586.727.587h.882l.252.255c.138.137.252.267.252.283 0 .016-.37.028-.82.028h-.826l-.54.186-.537.191.024.145c.033.178.18.437.33.579.17.166.874.473 1.268.558.19.045.707.125 1.142.182.512.069 1.268.215 2.13.409l1.337.303.804.546.805.542.167-.283.166-.283.171.138c.683.546 1.935.918 3.292.974l.646.029-.028.109c-.094.376-.894.72-2.085.89-.321.049-.602.085-.622.085-.02 0-.036.15-.036.332v.336l-.643.258c-.35.142-.65.271-.666.284-.017.012.13.182.32.38l.35.352h3.983l.716.239c.638.218.772.246 1.235.287.577.048.691.036 1.39-.162.354-.101.626-.138 2.093-.263l1.687-.146.618-.323c.341-.178.621-.316.621-.308 0 .008-.666.542-1.483 1.186l-1.48 1.169-.003.453c0 .251.008.457.02.457.085 0 7.328-.49 7.531-.51l.252-.024 1.305-1.371 1.3-1.372h.736c.58 0 .723.012.69.049-.024.028-.767.643-1.65 1.367l-1.605 1.315v1.04c-.004.574.004 1.043.016 1.043.013 0 .435-.162.943-.36.708-.275 1.053-.433 1.455-.675.789-.47 1.846-1 2.419-1.214 1.361-.506 1.967-.684 3.922-1.145l1.3-.311.337-.996.338-.995.532-.186c.293-.101.54-.178.549-.17.012.008-.11.251-.264.538-.41.753-.72 1.505-.858 2.084-.118.485-.264 1.403-.232 1.436.009.012 1.15-.846 2.54-1.906l2.52-1.921.89.121.895.126.886-.559c.492-.303.902-.566.918-.578.012-.012.057-.235.094-.49.142-.987.374-1.768.731-2.455.18-.348.183-.352.163-.174-.086.724-.3 2.848-.289 2.86.025.024 2.386-.312 2.483-.348.05-.02.801-.918 1.679-2.003l1.593-1.962v-.841l.004-.842.634-.376c.346-.206.638-.368.642-.364.009.008-.121.684-.288 1.505-.167.821-.293 1.501-.285 1.513.041.036.655-.121.931-.235.59-.25 1.114-.732 2.093-1.929.297-.36.748-.854 1.004-1.097l.472-.441.097-.505c.057-.283.126-.878.163-1.368.105-1.464.227-2.067.496-2.476l.113-.169.025.728c.032.898.08 1.298.264 2.01.13.522.536 1.687.585 1.687.012 0 .146-.42.297-.93l.272-.931 1.711-2.775 1.707-2.779-.35-1.602c-.19-.882-.357-1.626-.365-1.655-.012-.024.288.211.662.53l.679.583-.008.178c-.065 1.804.024 2.443.447 3.163.203.34.211.352.24.243.016-.061.114-1.036.211-2.164l.187-2.051.297-.417c.618-.854 1.028-1.804 1.146-2.621.187-1.336-.029-2.646-.654-4.006-.118-.254-.196-.473-.175-.477.081-.032.435.182.626.376.183.182.22.247.337.627.069.235.195.716.272 1.072.187.838.317 1.222.533 1.598.187.328.272.421.516.563l.15.093.716-1.453.715-1.448-.025-.566c-.113-2.476-.78-5.373-1.73-7.505-.29-.639-.302-.675-.233-.606.033.032.407.501.834 1.04.747.938.792 1.002 1.15 1.719l.374.74.174-.53c.366-1.129.427-2.25.175-3.346a7.607 7.607 0 0 0-1.414-2.9c-.17-.21-.561-.627-.866-.923l-.557-.542.061-.15c.301-.687.374-1.156.301-1.868-.06-.583-.175-.927-.536-1.586-.155-.288-.273-.53-.26-.543.012-.012.853-.19 1.877-.396l1.853-.376.618.368c.943.562 1.333.878 1.65 1.343.374.546.557 1.016.647 1.638.024.166.089 1.445.146 2.84l.105 2.537-.085.336c-.049.186-.122.453-.17.599-.305.946-1.289 2.39-2.342 3.446-.325.328-.585.603-.577.611.07.057.577.15.935.17.524.032 1.199-.048 2.012-.243.313-.073.581-.121.593-.109.012.016.325.506.699 1.088l.671 1.056.045.38c.093.838.093 1.125.004 1.93-.147 1.323-.277 1.861-.764 3.091l-.35.882-3.832 3.079a511.67 511.67 0 0 0-3.853 3.107c-.013.02.22.258.512.534.943.877 1.34 1.638 1.5 2.827.052.385.02.712-.127 1.36l-.085.372-1.74 1.46-1.743 1.457-4.227 1.254c-2.329.687-4.239 1.254-4.247 1.254-.008 0-.057-.117-.11-.255l-.093-.259-.988.591-.987.59-.004 2.023v2.023l-1.025 1.129c-.565.623-1.052 1.144-1.085 1.161-.032.02-4.141.983-9.132 2.14l-9.071 2.103-3.793.445a264.49 264.49 0 0 0-3.905.478c-.086.02.443.141 1.991.465l2.106.437 8.567-.813 8.563-.809 8.759-3.56 8.758-3.56 8.068-6.081 8.067-6.076 4.857-7.108 4.857-7.108 2.703-7.492 2.706-7.489-.569-6.921-.65-7.905-.081-.975-3.731-8.108-3.727-8.103-5.556-5.206-5.56-5.207-7.458-3.058-7.458-3.055-5.759-.364-5.755-.364-4.365.81-4.365.808-3.365 2.12-3.36 2.124-1.753 2.257a149.455 149.455 0 0 0-1.743 2.27c.008.008.642-.287 1.418-.655l1.407-.668 1.796.142c.988.076 1.809.153 1.825.17l.35.493c.881 1.266 1.609 2.48 2.442 4.09l.451.87.085 1.808.086 1.805-.252.437c-.447.772-.894 1.306-1.54 1.828-.509.413-.683.47-1.602.534-.516.032-.788.032-1.093-.004l-.407-.048-.35-.267c-.467-.36-1.02-.935-1.251-1.295-.102-.162-.191-.287-.2-.283-.023.024.115.59.245 1.003.227.712.227 1 .004 1.34-.134.205-.484.298-1.118.294-.52-.004-.707-.056-1.13-.323-.54-.344-1.447-1.372-2.26-2.565-.223-.324-.414-.603-.43-.62-.017-.015.016.183.073.446.09.44.093.51.053.87-.081.716-.33 1.217-.846 1.687l-.313.287-.65-.004h-.654l-.394-.473c-.22-.26-.513-.64-.655-.838-.244-.34-.874-1.509-1.073-1.994-.105-.251-.122-.255.435.137.264.186.65.397 1.24.668.471.218 1.085.518 1.37.66l.516.266.048-.17c.074-.27-.036-.797-.227-1.076-.061-.089-.703-.554-1.833-1.33a92.174 92.174 0 0 1-1.793-1.243c-.044-.04-.199-1.873-.162-1.91.008-.007.297.272.642.624l.626.635.833.328c.46.182.837.327.845.32.009-.009-.438-1.101-.987-2.432-.553-1.335-1.02-2.46-1.037-2.504-.024-.065.07-.267.423-.89.524-.935.618-1.072.93-1.356l.233-.21v2.152l.516.95c.284.523.524.944.528.935.008-.008.04-.457.073-.999.037-.542.098-1.242.142-1.553.187-1.343.187-2.189 0-3.54l-.077-.546.598-.599.601-.599.138.093c.325.215.41 1.024.244 2.298-.044.344-.081.635-.081.648 0 .044.398-.377.626-.668.45-.575.829-1.295.975-1.849.17-.66.244-1.16.244-1.679v-.49l.59-.117.589-.113.24-.303c.516-.656.666-.825.902-1.008.134-.105.3-.21.374-.238l.13-.045-.057.15c-.768 1.918-1.715 4.32-1.707 4.329.008.008.524-.324 1.154-.733l1.142-.744.65-.91.647-.914.085-1.064c.045-.587.085-1.069.093-1.069l1.228-.918c.67-.497 1.244-.918 1.268-.938.065-.037.146-.227-.923 2.192-.508 1.15-.918 2.1-.91 2.108.008.008.24-.11.512-.263.394-.223.577-.356.898-.663.573-.547 1.2-1.38 1.606-2.132l.333-.615V26.316l1.183-.724c.646-.397 1.186-.712 1.198-.704.009.012-.28.874-.65 1.917-.366 1.044-.662 1.902-.654 1.91.008.008.142-.04.3-.11.35-.149.838-.497 1.155-.829.341-.36.829-1.064 1.138-1.646l.272-.51v-2.298l.793-.789c.731-.724.788-.776.768-.647-.11.692-.614 4.191-.606 4.2.004.003.147-.15.313-.345.585-.68 1.073-1.54 1.597-2.82l.228-.558-.122-1.136-.126-1.133.309-1.157c.167-.635.313-1.19.325-1.226.016-.056.098-.016.443.235.403.287.423.311.447.473.012.093.077.724.147 1.404.065.675.126 1.234.13 1.242.008.004.154-.13.325-.304l.309-.311.052-.384c.033-.247.05-.773.045-1.477-.004-1.007-.016-1.153-.134-1.881a15.97 15.97 0 0 0-.35-1.602l-.219-.817v-1.384l-.264-.47-.26-.465.215.175c.118.097.403.32.626.497l.406.324.639 1.104c.353.607.65 1.096.658 1.084.012-.008-.049-.307-.13-.66-.354-1.516-.784-2.71-1.394-3.842l-.309-.57-.581-.24-.577-.234-.736-1.084c-.406-.599-.731-1.093-.723-1.1.004-.005.626.287 1.373.647.748.36 1.366.647 1.37.63.008-.011-.057-.278-.142-.59l-.155-.566-.248-.012-.248-.013-.093-.226c-.07-.17-.175-.308-.46-.583-.495-.485-.983-.752-1.694-.93-.325-.081-.56-.166-.667-.239-.552-.376-.983-.594-1.808-.91l-.874-.336-.012.482-.012.481.678.955c.37.526.667.959.659.967-.004.004-.382-.316-.833-.716l-.826-.725V4.49h-.938l-.488-.388c-.268-.214-.48-.396-.475-.405.008-.004.755.061 1.666.15l1.65.162.675-.303.674-.304.44.065c.296.044.735.065 1.39.065.824.004 1.02-.009 1.442-.09 1.43-.266 1.975-.44 3.142-1.003.845-.404.882-.416 1.15-.416h.276l.76-.882c.419-.482.809-.927.862-.991.057-.061.09-.11.065-.106-.02 0-.54.195-1.154.43Zm-20.72 1.833c1.309.093 2.223.36 2.865.837.163.126.293.235.285.243-.016.012-4.345-.105-4.361-.121-.02-.02.52-1 .553-1 .02 0 .313.02.658.04ZM29.75 13.564v.296l-1.89 1.12c-1.036.615-1.898 1.121-1.91 1.121-.012 0-.02-.396-.02-.886v-.886l.419-.113c.422-.114 3.373-.935 3.393-.943.004-.004.008.13.008.291ZM8.14 37.914c-.178.207-.763.898-1.304 1.538l-.983 1.16-.009 1.465-.012 1.465-.215-.275c-.252-.328-.667-1.15-.764-1.518a2.375 2.375 0 0 1 .04-1.294c.065-.19.167-.441.236-.558l.118-.21h.48l.56-.656c.31-.36.724-.841.919-1.072l.358-.417h.897l-.32.372Z"/><path d="m45.194 3.487-.63.53-.113.328c-.228.663-.285.995-.289 1.772 0 .396-.008.72-.008.72-.004 0-.3-.38-.663-.85-.617-.8-.666-.873-.853-1.343-.114-.275-.203-.485-.207-.469l-.082 1.12-.08 1.101.365.574c.658 1.04 1.3 1.586 2.215 1.886.565.182.862.226 1.87.287 1.1.069 1.588.012 2.58-.308a4.44 4.44 0 0 0 1.073-.481c.512-.295.549-.311 1.382-.53.471-.121 1.215-.34 1.65-.481 1.536-.498 2.158-.644 2.723-.64h.35l.552.409.557.409.138-.17c.256-.316.342-.826.22-1.303l-.053-.202-.305-.033c-.166-.02-.711-.024-1.215-.016-1.126.025-1.46.085-2.682.482-.541.174-1.033.4-1.57.724-.621.372-2.426.999-3.226 1.124-1.244.195-1.96.146-2.593-.174-.419-.214-.679-.46-.976-.942-.199-.32-.211-.344-.252-.769-.073-.712.045-1.61.248-1.889.065-.085.545-1.404.512-1.4-.004.004-.292.243-.638.534ZM77.712 4.677c-1.463.076-2.666.145-2.678.153-.008.012.203.68.48 1.481l.495 1.456.191.057c.102.028.492.142.862.247l.679.19.54-.445c.301-.243.549-.441.553-.437 0 0-.049.433-.114.955l-.118.958c0 .009.431.013.955.013h.951l.52-.336c.285-.186.541-.348.57-.364.024-.016-.061.287-.191.68l-.24.707h1.788l1.248.368c.687.203 1.264.38 1.288.393.077.049-1.008.25-1.87.348-1.39.162-2.076.218-3.125.267l-.967.044-1.004.47a24.34 24.34 0 0 0-1.028.493c-.016.012.374.235.865.49.496.255.923.481.956.505.04.033-.008.146-.232.546a20.676 20.676 0 0 1-2.235 3.261l-.44.53-.121.64c-.07.351-.118.65-.106.659.008.008.285-.126.61-.296.329-.17.601-.303.61-.295.012.008-.017.603-.062 1.323l-.08 1.303.284 1.322c.304 1.412.524 2.153.865 2.901.11.243.212.461.232.477.053.057.354-.327.52-.671.09-.182.212-.494.273-.688.125-.416.077-.449.5.3.646 1.149 1.523 2.176 2.393 2.803l.378.267 1.268.263c.7.142 1.276.25 1.28.247.013-.012-.162-1.274-.21-1.533-.017-.101.04-.073.735.4l.756.514.475-.223.476-.222.74.316.74.315 1.349.065c.74.032 1.353.056 1.361.044.008-.008-.24-.465-.557-1.02-.313-.55-.557-1.015-.54-1.03.02-.017.398-.203.85-.414 1.73-.813 3.068-1.78 3.73-2.694l.159-.214-.301.024c-.573.049-1.63.11-1.642.097-.004-.008.414-.477.939-1.044l.947-1.031v-1.206l.004-1.201h-.224c-.406 0-.935.141-1.243.332-.102.06-.2.113-.212.113-.016 0-.032-.405-.036-.894l-.013-.898-.447-.195c-.58-.255-1.56-.566-2.276-.724-.565-.125-2.182-.408-2.206-.384-.009.004.337.307.764.668.43.364.796.695.812.744.02.048.118.639.224 1.319l.187 1.233-.581 2.072c-.317 1.14-.59 2.063-.606 2.043-.016-.016-.162-.534-.325-1.153-.163-.615-.309-1.12-.321-1.12-.012 0-.102.206-.2.456-.349.882-.776 1.639-1.076 1.898a.63.63 0 0 1-.155.113c-.02 0-.032-.162-.032-.356v-.36l-.394.08c-.537.106-.94.106-1.273-.003-.219-.073-.361-.09-.82-.09h-.561v.122c0 .065-.013.122-.029.122a42.046 42.046 0 0 1-1.459-.13c-.008-.008.244-.166.557-.352.313-.186.553-.352.536-.368-.016-.016-.536-.206-1.15-.425a43.174 43.174 0 0 1-1.134-.412c-.012-.008.159-.19.374-.409.216-.218.394-.409.394-.425 0-.016-.333-.445-.74-.95-.402-.506-.755-.943-.775-.971-.025-.029.251.12.605.331.354.21.65.377.658.369.009-.005-.15-.555-.353-1.214l-.362-1.206.585.583c.322.32.586.566.586.55 0-.069-.163-2.25-.187-2.488l-.025-.255.655.465.654.47.699-1.178.703-1.173.012.753c.004.412.017.748.029.748.008 0 .56-.336 1.227-.748l1.211-.749.013.526c.004.287.016.526.024.526.012 0 .642-.154 1.402-.336l1.386-.34v.441c0 .24.008.437.024.437.013 0 .358-.137.773-.307.426-.178.768-.295.784-.275.02.02.085.303.146.63l.11.6h3.325l-.468.708-.463.708h1.053c.58 0 1.056.004 1.056.008l-.142 1.165c-.126 1.044-.134 1.157-.077 1.201.036.024.666.38 1.402.785.736.409 1.325.753 1.309.765-.02.016-.326.069-.683.117-.358.049-.785.11-.943.133l-.297.041v.461c0 .255.004.461.012.461l2.13.421 2.122.425.796.651c.435.36.793.668.793.68 0 .016-.525.133-1.171.263-.642.13-1.252.255-1.357.279l-.195.04v.882h1.097l2.134 1.242a157.53 157.53 0 0 1 2.121 1.25c-.004.004-.475-.06-1.044-.15-.569-.084-1.049-.14-1.069-.12-.016.015-.155.23-.309.473-.228.36-.268.449-.224.485.029.024 1.472.842 3.199 1.817l3.146 1.776.333.602c.183.332.325.615.313.627-.016.013-.321.033-.687.04-.723.021-1.114-.032-1.609-.218a2.495 2.495 0 0 0-.297-.097c-.057 0 .41.846.593 1.072.321.397.984 1.044 1.305 1.27.179.13.638.413 1.016.632l.691.392 1.044 1.036c.578.57 1.041 1.04 1.037 1.048-.008.004-.565-.17-1.24-.389-.679-.222-1.227-.388-1.219-.372.008.016.455.785.996 1.707l.983 1.675 1.248.688c.687.376 1.272.704 1.301.728.04.032.02.125-.11.465-.09.235-.167.45-.179.478-.012.032-.317-.15-.87-.514l-.849-.567.142.534.138.534 1.496 1.497 1.495 1.497.557.866c.309.473.553.866.545.874-.008.008-.431-.11-.939-.26a13.62 13.62 0 0 0-.923-.258c0 .008 1.244 2.654 2.764 5.878l2.76 5.858.504 2.565c.28 1.408.886 4.539 1.353 6.958.463 2.42.85 4.394.854 4.39.004-.005-.098-2.185-.228-4.843s-.248-5.11-.264-5.441c-.094-2.116-.911-18.359-.923-18.37-.012-.009-.37.505-.8 1.136l-.781 1.153h-.727l-.004-4.038v-4.033l-.399-.789-.398-.785-.061.199c-.032.113-.292 1.072-.581 2.136-.337 1.233-.536 1.905-.557 1.86-.016-.04-.122-.639-.236-1.326l-.203-1.255-.142-2.52a109.726 109.726 0 0 0-.15-2.54c-.013-.009-.411.65-.886 1.464-.728 1.234-.878 1.46-.903 1.384-.016-.053-.357-2.096-.764-4.544a503.468 503.468 0 0 0-.756-4.51c-.012-.033-.276.566-.585 1.335-.321.797-.573 1.371-.585 1.335-.016-.033-.809-2.015-1.768-4.406-1.284-3.208-1.744-4.32-1.764-4.248-.012.053-.134.761-.276 1.574-.139.813-.265 1.489-.277 1.505-.012.016-.874-2.019-1.914-4.519s-1.902-4.523-1.914-4.498c-.012.028-.179.788-.366 1.695-.187.91-.354 1.65-.366 1.65-.016 0-1.439-1.913-3.166-4.248-1.727-2.338-3.146-4.243-3.154-4.235-.008.008.033.732.086 1.61.056.878.101 1.618.101 1.646 0 .029-1.463-1.314-3.251-2.985L91.77 8.779l-.008 1.533-.012 1.533-2.447-.898c-1.34-.49-2.438-.898-2.434-.902a24.71 24.71 0 0 1 1.118-.17c.61-.089 1.117-.17 1.13-.182.012-.012.11-.38.215-.821.102-.441.203-.85.215-.915l.029-.109H88.6L84.658 6.19c-3.255-1.372-3.97-1.66-4.117-1.655l-2.829.142ZM5.426 54.817l-.813.809H2.764l-.988-.732c-.54-.405-1.008-.753-1.036-.777-.029-.02.069.214.22.522.146.307.398.829.552 1.153l.284.59.578.02c.605.025.934.102 1.243.288l.138.085-.138.028c-.077.016-.296.049-.483.077-.683.093-1.553.502-1.976.93l-.199.203h2.207l.74-.466c1.126-.716 1.837-1.387 2.349-2.217.252-.412.406-.732.451-.946.024-.105.049-.235.061-.288.02-.084.012-.088-.252-.088H6.24l-.813.809Z"/></g><defs><clipPath id="a"><path fill="#fff" d="M0 0h124v128H0z"/></clipPath></defs></svg>